<svg width="154" height="183" viewBox="0 0 154 183" fill="none" xmlns="http://www.w3.org/2000/svg">
<path d="M208.264 129.795H22.4305C19.7159 129.795 17.5146 127.594 17.5146 124.88V14.4537C17.5146 11.7395 19.7159 9.53955 22.4305 9.53955H208.264C210.978 9.53955 213.178 11.7395 213.178 14.4537V124.881C213.178 127.594 210.978 129.795 208.264 129.795Z" fill="#2E2A4A"/>
<path d="M228.512 174.391L161.405 182.345H64.1876L0.296387 173.93L17.2152 121.806H212.878L228.512 174.391Z" fill="white"/>
<path d="M228.512 174.391L228.477 174.097L161.387 182.048H64.2062L0.688596 173.683L17.4302 122.103H212.656L228.225 174.476L228.512 174.391L228.477 174.097L228.512 174.391L228.794 174.306L213.162 121.721C213.124 121.595 213.009 121.509 212.878 121.509H17.2148C17.0863 121.509 16.9718 121.593 16.9321 121.714L0.0150359 173.839C-0.0127743 173.923 -0.00170847 174.014 0.0457581 174.089C0.0927879 174.162 0.170977 174.213 0.257611 174.224L64.1477 182.64C64.16 182.641 64.1742 182.642 64.1874 182.642H161.405C161.417 182.642 161.428 182.641 161.44 182.64L228.546 174.685C228.636 174.675 228.712 174.627 228.76 174.554C228.807 174.48 228.819 174.391 228.794 174.306L228.512 174.391L228.512 174.391Z" fill="#2E2A4A"/>
<path d="M208.458 121.213H22.2344C19.6278 121.213 17.5146 119.1 17.5146 116.494V15.0416C17.5146 12.435 19.6278 10.3223 22.2344 10.3223L208.458 10.3231C211.065 10.3231 213.178 12.436 213.178 15.0417V116.494C213.178 119.1 211.065 121.213 208.458 121.213V121.213Z" fill="white"/>
<path d="M208.458 121.213V120.927H22.2345C21.0099 120.927 19.903 120.432 19.1004 119.628C18.2977 118.826 17.8018 117.718 17.8018 116.494V15.0417C17.8018 13.817 18.2977 12.7098 19.1004 11.9071C19.903 11.1049 21.0099 10.6089 22.2345 10.6089H208.458C209.684 10.6089 210.79 11.1049 211.594 11.9071C212.397 12.711 212.892 13.817 212.892 15.0417V116.494C212.892 117.72 212.397 118.826 211.594 119.629C210.79 120.432 209.684 120.927 208.458 120.927V121.499C211.224 121.499 213.464 119.259 213.464 116.494L213.465 15.0417C213.464 12.2778 211.224 10.0361 208.458 10.0361H22.2345C19.4698 10.0361 17.229 12.2778 17.229 15.0417V116.494C17.229 117.874 17.7899 119.128 18.696 120.034C19.6007 120.938 20.8539 121.499 22.2345 121.499H208.458V121.213V121.213Z" fill="#2E2A4A"/>
<path d="M209.781 111.498L21.1856 111.497L21.0977 21.5874L209.693 21.5887L209.781 111.498Z" fill="#B7D8FF"/>
<path d="M209.781 31.5623H21.1843L21.0977 19.6602L209.693 19.6615L209.781 31.5623Z" fill="#205ABF"/>
<path d="M205.574 155.207L19.0078 155.722L27.2602 126.218H197.743L205.574 155.207Z" fill="white"/>
<path d="M205.574 155.208L205.573 154.94L19.3617 155.453L27.4634 126.486H197.537L205.314 155.278L205.574 155.208L205.573 154.94L205.574 155.208L205.832 155.138L198.002 126.149C197.97 126.031 197.864 125.95 197.743 125.95H27.26C27.1391 125.95 27.0344 126.03 27.0015 126.147L18.7495 155.65C18.7265 155.731 18.7426 155.817 18.7943 155.885C18.8451 155.951 18.9242 155.991 19.0088 155.991L205.575 155.476C205.657 155.476 205.736 155.437 205.787 155.37C205.838 155.305 205.854 155.219 205.832 155.138L205.574 155.208H205.574Z" fill="#2E2A4A"/>
<path d="M48.6441 152.217L48.6629 152.148L23.5835 152.217L30.3328 128.088H194.826L201.231 151.798L48.6441 152.217ZM176.082 147.326C176.108 147.319 144.258 156.19 176.082 147.326V147.326Z" fill="#DCE7F5"/>
<path d="M146.92 170.94L81.3906 171.152L84.2886 158.96H144.171L146.92 170.94Z" fill="white"/>
<path d="M146.92 170.94V170.672L81.7303 170.883L84.5008 159.228H143.956L146.66 171L146.92 170.94V170.672V170.94L147.182 170.881L144.431 158.901C144.403 158.779 144.295 158.692 144.171 158.692H84.2887C84.1643 158.692 84.0567 158.777 84.028 158.898L81.1292 171.09C81.1104 171.171 81.1292 171.255 81.1796 171.319C81.2313 171.384 81.3082 171.422 81.3906 171.421L146.921 171.208C147.003 171.208 147.08 171.171 147.13 171.107C147.181 171.044 147.2 170.96 147.182 170.881L146.92 170.94H146.92Z" fill="#2E2A4A"/>
<path d="M151.901 174.391C149.497 174.391 147.27 175.214 145.545 176.517C144.581 177.247 143.266 177.698 141.822 177.698H86.3766C84.9332 177.698 83.6193 177.247 82.6538 176.517C80.9302 175.214 78.7017 174.391 76.2971 174.391H0.295898V174.75C0.297209 179.252 4.98956 182.901 10.7764 182.901H218.426C224.214 182.901 228.905 179.252 228.905 174.75V174.391H151.901H151.901Z" fill="#2E2A4A"/>
<path d="M36.3179 25.6113C36.3179 26.6643 35.4635 27.5186 34.4107 27.5186C33.3572 27.5186 32.5034 26.6642 32.5034 25.6113C32.5034 24.5579 33.3574 23.7036 34.4107 23.7036C35.4637 23.7036 36.3179 24.558 36.3179 25.6113Z" fill="white"/>
<path d="M42.6431 25.6113C42.6431 26.6643 41.7887 27.5186 40.7354 27.5186C39.6824 27.5186 38.8281 26.6642 38.8281 25.6113C38.8281 24.5579 39.6825 23.7036 40.7354 23.7036C41.7888 23.7036 42.6431 24.558 42.6431 25.6113Z" fill="white"/>
<path d="M48.9673 25.6113C48.9673 26.6643 48.1129 27.5186 47.06 27.5186C46.0066 27.5186 45.1523 26.6642 45.1523 25.6113C45.1523 24.5579 46.0067 23.7036 47.06 23.7036C48.113 23.7036 48.9673 24.558 48.9673 25.6113Z" fill="white"/>
<path d="M117.212 82.418C117.212 83.3855 116.378 84.1693 115.346 84.1693C114.316 84.1693 113.481 83.3853 113.481 82.418C113.481 81.4504 114.316 80.6658 115.346 80.6658C116.378 80.6658 117.212 81.4504 117.212 82.418Z" fill="#2E2A4A"/>
<path d="M82.7222 45.5765L82.7495 81.4376C82.7551 87.4918 97.0703 100.302 114.825 100.288C132.579 100.274 147.05 87.6246 147.044 81.5704L147.016 45.5256L82.7222 45.5765Z" fill="#2E2A4A"/>
<path d="M72.3173 51.7034L113.602 28.3045C114.142 27.9982 114.843 27.9829 115.405 28.2639L157.512 49.3451C158.579 49.879 158.626 51.1657 157.6 51.7466L115.753 75.416C115.208 75.7253 114.498 75.7372 113.935 75.4481L72.3892 54.0957C71.3371 53.5553 71.2986 52.2806 72.3174 51.7035L72.3173 51.7034Z" fill="#2E2A4A"/>
<path d="M174.941 11.9247C159.626 27.8794 141.774 25.7542 141.022 25.6559L136.577 25.0754L140.819 23.6265C140.964 23.5773 155.421 18.5026 166.403 2.75635L168.121 3.95364C160.468 14.9285 151.359 20.8357 146.018 23.5952C152.222 23.1629 163.491 20.8285 173.43 10.4743L174.941 11.9245L174.941 11.9247Z" fill="#B7D8FF"/>
<path d="M171.059 6.30418C158.535 21.8996 142.067 25.4971 141.371 25.6429L137.044 26.5485L140.506 23.7984C140.629 23.7001 152.941 13.8573 163.762 0L165.413 1.28873C158.2 10.5262 150.331 18.0054 145.746 22.0781C151.514 19.8936 161.412 14.9727 169.427 4.99229L171.059 6.30418H171.059Z" fill="#B7D8FF"/>
<path d="M173.422 10.964C158.325 24.0857 141.48 24.6992 140.77 24.7184L136.351 24.841L140.247 22.7491C140.384 22.6753 154.25 15.1776 167.362 3.46338L168.758 5.02512C160.016 12.8332 150.944 18.7952 145.708 21.9883C151.773 20.8635 162.388 17.7798 172.049 9.38346L173.422 10.964H173.422Z" fill="#B7D8FF"/>
<path d="M114.055 46.2311C116.08 46.1995 117.739 47.3038 117.761 48.6976C117.782 50.0915 116.158 51.247 114.134 51.279C112.109 51.3106 110.45 50.2064 110.428 48.8121C110.406 47.4187 112.03 46.2627 114.055 46.2311Z" fill="#205ABF"/>
<path d="M152.59 24.654C123.458 26.6843 114.875 33.1299 112.804 38.1909C111.204 42.0952 113.264 45.7992 114.322 47.328C114.623 47.7637 114.549 48.3554 114.152 48.7065C113.68 49.1235 112.953 49.0325 112.593 48.5152C111.294 46.6484 108.882 42.2397 110.866 37.3973C114.206 29.2418 128.194 24.2555 152.445 22.5652L152.59 24.654H152.59Z" fill="#B7D8FF"/>
<path d="M82.6352 59.6016L111.348 74.358V74.3593C111.356 74.3628 111.845 74.6123 112.621 74.863C113.398 75.1124 114.46 75.364 115.621 75.364C116.779 75.364 118.038 75.1115 119.181 74.3461C120.426 73.514 122.801 72.0671 125.657 70.3684C129.942 67.8203 135.316 64.7037 139.618 62.2241C141.77 60.9844 143.653 59.9042 144.997 59.1335C145.67 58.7482 146.209 58.4406 146.578 58.2291C146.764 58.1233 146.907 58.0416 147.004 57.9866C147.101 57.9311 147.15 57.9024 147.151 57.9024C147.253 57.8443 147.289 57.7136 147.231 57.6106C147.172 57.5081 147.041 57.4726 146.939 57.5311C146.939 57.5311 141.195 60.8066 134.825 64.5016C131.638 66.3487 128.298 68.3004 125.438 70.0013C122.579 71.7011 120.204 73.1478 118.944 73.9911C117.886 74.698 116.719 74.9364 115.621 74.9364C114.523 74.9364 113.499 74.6967 112.752 74.4562C112.38 74.3349 112.075 74.2152 111.865 74.1251C111.759 74.0798 111.678 74.0427 111.624 74.0175C111.597 74.0042 111.576 73.9943 111.562 73.9876L111.547 73.9799L111.543 73.9777H111.544L82.83 59.2213C82.7257 59.167 82.5972 59.2085 82.5421 59.3136C82.4883 59.4187 82.5298 59.5473 82.6353 59.6015L82.6352 59.6016Z" fill="white"/>
</svg>
