<svg width="67" height="32" viewBox="0 0 67 32" fill="none" xmlns="http://www.w3.org/2000/svg">
<g opacity="0.2">
<path d="M0 31.6425H13.3793V27.1732H5.05747V0.35754H0V31.6425Z" fill="#313131"/>
<path d="M20.2238 7.55307C20.2238 5.31843 21.2353 4.46927 22.8445 4.46927C24.4537 4.46927 25.4652 5.31843 25.4652 7.55307V24.4469C25.4652 26.6816 24.4537 27.5307 22.8445 27.5307C21.2353 27.5307 20.2238 26.6816 20.2238 24.4469V7.55307ZM15.1663 24.1341C15.1663 29.1397 17.879 32 22.8445 32C27.81 32 30.5226 29.1397 30.5226 24.1341V7.86592C30.5226 2.86033 27.81 0 22.8445 0C17.879 0 15.1663 2.86033 15.1663 7.86592V24.1341Z" fill="#313131"/>
<path d="M41.3955 18.6816H43.6943V24.4469C43.6943 26.6816 42.6828 27.486 41.0736 27.486C39.4644 27.486 38.4529 26.6816 38.4529 24.4469V7.55307C38.4529 5.31843 39.4644 4.46927 41.0736 4.46927C42.6828 4.46927 43.6943 5.31843 43.6943 7.55307V10.905H48.4759V7.86592C48.4759 2.86033 45.9012 0 40.9357 0C35.9702 0 33.3955 2.86033 33.3955 7.86592V24.1341C33.3955 29.1397 35.9702 32 40.9357 32C45.9012 32 48.4759 29.1397 48.4759 24.1341V14.2123H41.3955V18.6816Z" fill="#313131"/>
<path d="M56.3678 7.55307C56.3678 5.31843 57.3793 4.46927 58.9885 4.46927C60.5977 4.46927 61.6092 5.31843 61.6092 7.55307V24.4469C61.6092 26.6816 60.5977 27.5307 58.9885 27.5307C57.3793 27.5307 56.3678 26.6816 56.3678 24.4469V7.55307ZM51.3103 24.1341C51.3103 29.1397 54.023 32 58.9885 32C63.954 32 66.6667 29.1397 66.6667 24.1341V7.86592C66.6667 2.86033 63.954 0 58.9885 0C54.023 0 51.3103 2.86033 51.3103 7.86592V24.1341Z" fill="#313131"/>
</g>
</svg>
