<svg width="117" height="56" viewBox="0 0 117 56" fill="none" xmlns="http://www.w3.org/2000/svg">
<g opacity="0.2">
<path d="M0 55.3743H23.4138V47.5531H8.85058V0.625695H0V55.3743Z" fill="#313131"/>
<path d="M35.3916 13.2179C35.3916 9.30726 37.1617 7.82123 39.9778 7.82123C42.7939 7.82123 44.564 9.30726 44.564 13.2179V42.7821C44.564 46.6927 42.7939 48.1788 39.9778 48.1788C37.1617 48.1788 35.3916 46.6927 35.3916 42.7821V13.2179ZM26.541 42.2346C26.541 50.9944 31.2882 56 39.9778 56C48.6675 56 53.4146 50.9944 53.4146 42.2346V13.7654C53.4146 5.00558 48.6675 0 39.9778 0C31.2882 0 26.541 5.00558 26.541 13.7654V42.2346Z" fill="#313131"/>
<path d="M72.4421 32.6927H76.4651V42.7821C76.4651 46.6927 74.695 48.1006 71.8789 48.1006C69.0628 48.1006 67.2927 46.6927 67.2927 42.7821V13.2179C67.2927 9.30726 69.0628 7.82123 71.8789 7.82123C74.695 7.82123 76.4651 9.30726 76.4651 13.2179V19.0838H84.8329V13.7654C84.8329 5.00558 80.3271 0 71.6375 0C62.9478 0 58.4421 5.00558 58.4421 13.7654V42.2346C58.4421 50.9944 62.9478 56 71.6375 56C80.3271 56 84.8329 50.9944 84.8329 42.2346V24.8715H72.4421V32.6927Z" fill="#313131"/>
<path d="M98.6437 13.2179C98.6437 9.30726 100.414 7.82123 103.23 7.82123C106.046 7.82123 107.816 9.30726 107.816 13.2179V42.7821C107.816 46.6927 106.046 48.1788 103.23 48.1788C100.414 48.1788 98.6437 46.6927 98.6437 42.7821V13.2179ZM89.7931 42.2346C89.7931 50.9944 94.5402 56 103.23 56C111.92 56 116.667 50.9944 116.667 42.2346V13.7654C116.667 5.00558 111.92 0 103.23 0C94.5402 0 89.7931 5.00558 89.7931 13.7654V42.2346Z" fill="#313131"/>
</g>
</svg>
