<svg width="1200" height="436" viewBox="0 0 1200 436" fill="none" xmlns="http://www.w3.org/2000/svg">
<g opacity="0.1">
<path d="M124.974 90.2529C124.974 108.028 139.502 122.439 157.424 122.439H315.456C330.267 122.439 342.278 134.349 342.278 149.041C342.278 163.73 330.27 175.64 315.456 175.64H41.2767C18.4814 175.64 0 193.967 0 216.578C0 239.186 18.4791 257.514 41.2767 257.514H172.474C190.529 257.514 205.167 272.031 205.167 289.939C205.167 307.844 190.529 322.362 172.474 322.362H163.371C132.156 322.362 106.853 347.46 106.853 378.416C106.853 409.375 132.156 434.471 163.371 434.471H854.781C875.375 434.471 892.069 417.916 892.069 397.489C892.069 377.064 875.375 360.506 854.781 360.506H834.845C819.058 360.506 806.266 347.817 806.266 332.165C806.266 316.51 819.058 303.821 834.845 303.821H990.538C1012.42 303.821 1030.16 286.227 1030.16 264.518C1030.16 242.815 1012.42 225.218 990.538 225.218H873.983C854.512 225.218 838.728 209.564 838.728 190.253C838.728 170.941 854.512 155.287 873.983 155.287H1124.46C1151.54 155.287 1173.48 133.523 1173.48 106.675C1173.48 79.8258 1151.54 58.062 1124.46 58.062H157.424C139.502 58.062 124.974 72.4706 124.974 90.2483V90.2529Z" fill="#DCEDF8"/>
<path d="M937.695 91.2974C937.695 93.1606 936.172 94.6711 934.293 94.6711C932.412 94.6711 930.892 93.1606 930.892 91.2974C930.892 89.4343 932.412 87.9238 934.293 87.9238C936.172 87.9238 937.695 89.4343 937.695 91.2974Z" fill="#71B3E2"/>
<path d="M231.161 105.383C231.161 107.01 229.83 108.328 228.192 108.328C226.552 108.328 225.226 107.008 225.226 105.383C225.226 103.759 226.554 102.441 228.192 102.441C229.83 102.441 231.161 103.759 231.161 105.383Z" fill="#71B3E2"/>
<path d="M83.8642 49.8718C83.8642 51.4959 82.5354 52.8138 80.8955 52.8138C79.2555 52.8138 77.9268 51.4959 77.9268 49.8718C77.9268 48.2453 79.2555 46.9297 80.8955 46.9297C82.5354 46.9297 83.8642 48.2476 83.8642 49.8718Z" fill="#71B3E2"/>
<path d="M616.528 150.428C616.528 152.057 615.199 153.373 613.559 153.373C611.922 153.373 610.593 152.055 610.593 150.428C610.593 148.802 611.922 147.486 613.559 147.486C615.201 147.486 616.528 148.804 616.528 150.428Z" fill="#71B3E2"/>
<path d="M910.466 202.583C910.466 204.135 909.198 205.39 907.635 205.39C906.07 205.39 904.804 204.135 904.804 202.583C904.804 201.033 906.07 199.78 907.635 199.78C909.198 199.78 910.466 201.035 910.466 202.583Z" fill="#71B3E2"/>
<path d="M614.725 5.04724C614.725 7.31179 612.877 9.14478 610.593 9.14478C608.312 9.14478 606.462 7.31179 606.462 5.04724C606.462 2.78269 608.315 0.949707 610.593 0.949707C612.877 0.949707 614.725 2.78269 614.725 5.04724Z" fill="#71B3E2"/>
<path d="M674.913 95.3949C674.913 97.6594 673.065 99.4924 670.782 99.4924C668.501 99.4924 666.65 97.6594 666.65 95.3949C666.65 93.1327 668.501 91.2974 670.782 91.2974C673.065 91.2974 674.913 93.1327 674.913 95.3949Z" fill="#71B3E2"/>
<path d="M973.638 182.086C973.638 184.345 971.787 186.183 969.506 186.183C967.223 186.183 965.375 184.345 965.375 182.086C965.375 179.821 967.223 177.983 969.506 177.983C971.787 177.983 973.638 179.819 973.638 182.086Z" fill="#71B3E2"/>
<path d="M371.534 23.2238C371.534 25.9292 369.324 28.1195 366.598 28.1195C363.871 28.1195 361.662 25.9292 361.662 23.2238C361.662 20.5207 363.871 18.3281 366.598 18.3281C369.321 18.3281 371.534 20.5207 371.534 23.2238Z" fill="#71B3E2"/>
<path d="M957.043 12.6624C951.859 14.029 950.741 15.1357 949.365 20.2797C947.989 15.1334 946.873 14.029 941.687 12.6624C946.873 11.2981 947.989 10.1936 949.365 5.04736C950.741 10.1936 951.859 11.2981 957.043 12.6624Z" fill="#71B3E2"/>
<path d="M101.31 142.753C96.1239 144.117 95.008 145.221 93.6301 150.368C92.2545 145.221 91.141 144.117 85.9521 142.753C91.1386 141.388 92.2545 140.279 93.6301 135.138C95.008 140.282 96.1216 141.388 101.31 142.753Z" fill="#71B3E2"/>
<path d="M471.659 102.441C466.859 103.703 465.827 104.727 464.554 109.488C463.279 104.727 462.25 103.703 457.45 102.441C462.25 101.179 463.279 100.156 464.554 95.3945C465.827 100.156 466.859 101.179 471.659 102.441Z" fill="#71B3E2"/>
<path d="M52.0355 340.808C45.1202 342.627 43.6323 344.103 41.7959 350.959C39.9618 344.1 38.4739 342.625 31.5586 340.808C38.4739 338.989 39.9618 337.513 41.7959 330.655C43.63 337.513 45.1202 338.989 52.0355 340.808Z" fill="#71B3E2"/>
<path d="M401.472 207.223C397.268 208.325 396.367 209.223 395.251 213.392C394.135 209.223 393.23 208.325 389.031 207.223C393.23 206.116 394.135 205.22 395.251 201.051C396.367 205.22 397.268 206.116 401.472 207.223Z" fill="#71B3E2"/>
<path d="M365.435 135.136C361.231 136.242 360.33 137.136 359.214 141.305C358.098 137.136 357.193 136.242 352.994 135.136C357.193 134.029 358.098 133.133 359.214 128.964C360.33 133.133 361.231 134.029 365.435 135.136Z" fill="#71B3E2"/>
<path d="M749.019 142.753C744.815 143.86 743.91 144.753 742.796 148.92C741.68 144.751 740.78 143.857 736.576 142.753C740.78 141.646 741.68 140.748 742.796 136.581C743.912 140.751 744.817 141.648 749.019 142.753Z" fill="#71B3E2"/>
<path d="M1136.95 334.641C1132.75 335.747 1131.85 336.641 1130.73 340.81C1129.62 336.641 1128.71 335.747 1124.51 334.641C1128.71 333.534 1129.62 332.636 1130.73 328.469C1131.85 332.638 1132.75 333.536 1136.95 334.641Z" fill="#71B3E2"/>
<path d="M1093.31 184.515C1085.4 186.596 1083.69 188.285 1081.59 196.132C1079.49 188.285 1077.79 186.598 1069.88 184.515C1077.79 182.431 1079.49 180.744 1081.59 172.897C1083.69 180.744 1085.4 182.431 1093.31 184.515Z" fill="#71B3E2"/>
<path d="M1162.7 299.795H1084.98C1064.38 299.795 1047.68 283.227 1047.68 262.792C1047.68 242.358 1064.38 225.794 1084.98 225.794H1162.7C1183.3 225.794 1200 242.36 1200 262.792C1200 283.227 1183.3 299.795 1162.7 299.795Z" fill="#DCEDF8"/>
<path d="M38.1571 398.324C29.4006 404.222 27.1267 416.044 33.0735 424.729C39.0203 433.411 50.9397 435.671 59.6961 429.77C68.4525 423.872 70.7265 412.051 64.7797 403.366C58.8329 394.684 46.9112 392.424 38.1571 398.324Z" fill="#FEFEFE"/>
<path d="M39.4042 400.143C31.6771 405.352 29.6582 415.828 34.9102 423.494C40.1598 431.16 50.7223 433.16 58.4517 427.951C66.1812 422.744 68.1954 412.269 62.9481 404.603C57.6938 396.937 47.1336 394.934 39.4065 400.143H39.4042ZM48.9584 435.248C42.1062 435.248 35.3711 431.998 31.2397 425.967C24.6144 416.292 27.1574 403.078 36.9104 396.507V396.505C46.6611 389.936 59.9887 392.459 66.614 402.132C73.2392 411.807 70.6939 425.021 60.9432 431.592C57.2727 434.065 53.0968 435.251 48.9584 435.251V435.248Z" fill="#3484C5"/>
<path d="M47.6621 426.074L45.2408 422.387L53.4288 417.104C54.0791 416.684 54.2663 415.816 53.8429 415.169C53.4171 414.522 52.5445 414.338 51.8918 414.761L48.6189 416.872C45.9146 418.615 42.2885 417.856 40.5292 415.176C38.77 412.491 39.5397 408.893 42.2394 407.15L50.1934 402.016L52.6147 405.705L44.6606 410.835C44.008 411.257 43.8231 412.125 44.2489 412.775C44.6723 413.417 45.5473 413.603 46.2 413.181L49.4728 411.071C52.1748 409.327 55.8056 410.085 57.5625 412.768C59.3218 415.45 58.5521 419.048 55.8524 420.791L47.6645 426.074H47.6621Z" fill="#3484C5"/>
<path d="M54.2983 426.267L39.8384 404.227L43.5557 401.828L58.0157 423.87L54.2983 426.267Z" fill="#3484C5"/>
<path d="M1087.75 433.056H1075.72C1075.23 433.056 1074.83 432.666 1074.83 432.183V344.864L1074.91 344.497L1080.94 334.796C1081.25 334.119 1082.22 334.119 1082.53 334.796L1088.55 344.497L1088.63 344.864V432.183C1088.63 432.664 1088.24 433.056 1087.75 433.056H1087.75Z" fill="#FEFEFE"/>
<path d="M1074.83 424.236H1088.64V347.808H1074.83V424.236Z" fill="#71B3E2"/>
<path d="M1077.05 430.856H1086.42V345.284L1081.73 337.569L1077.05 345.284V430.856ZM1090.86 435.255H1072.62V344.061L1079.36 332.965C1079.69 332.216 1080.67 331.599 1081.73 331.599C1082.8 331.599 1083.78 332.218 1084.23 333.177L1090.85 344.059V435.253L1090.86 435.255Z" fill="#3484C5"/>
<path d="M1074.55 350.008H1088.64V345.608H1074.55V350.008Z" fill="#3484C5"/>
<path d="M1074.22 426.431H1089.25V422.032H1074.22V426.431Z" fill="#3484C5"/>
<path d="M1092.47 427.693L1091.4 423.422C1108.75 419.146 1120.86 403.756 1120.86 385.997C1120.86 368.866 1109.27 353.62 1092.68 348.917L1093.9 344.687C1112.38 349.924 1125.29 366.91 1125.29 385.997C1125.29 405.779 1111.79 422.925 1092.47 427.693H1092.47Z" fill="#3484C5"/>
<path d="M1071 427.568C1051.96 422.631 1038.67 405.536 1038.67 385.999C1038.67 366.639 1051.81 349.588 1070.63 344.532L1071.79 348.78C1054.9 353.316 1043.1 368.623 1043.1 385.999C1043.1 403.538 1055.03 418.879 1072.11 423.311L1070.99 427.571L1071 427.568Z" fill="#3484C5"/>
<path d="M1098.12 425.394L1094.36 423.062C1100.72 412.972 1104.22 399.772 1104.22 385.892C1104.22 372.129 1100.78 359.024 1094.54 348.989L1098.31 346.678C1104.98 357.397 1108.66 371.323 1108.66 385.892C1108.66 400.582 1104.92 414.612 1098.12 425.394Z" fill="#3484C5"/>
<path d="M1066.89 425.396C1060.1 414.619 1056.35 400.589 1056.35 385.892C1056.35 371.337 1060.03 357.409 1066.71 346.678L1070.48 348.989C1064.23 359.036 1060.79 372.14 1060.79 385.892C1060.79 399.776 1064.29 412.976 1070.66 423.062L1066.9 425.399L1066.89 425.396Z" fill="#3484C5"/>
<path d="M1093.29 388.199H1123.08V383.797H1093.29V388.199Z" fill="#3484C5"/>
<path d="M1095.58 368.834H1119.23V364.435H1095.58V368.834Z" fill="#3484C5"/>
<path d="M1040.88 388.199H1070.85V383.797H1040.88V388.199Z" fill="#3484C5"/>
<path d="M1044.41 368.834H1069.07V364.435H1044.41V368.834Z" fill="#3484C5"/>
<path d="M1095.08 407.568H1116.98V403.167H1095.08V407.568Z" fill="#3484C5"/>
<path d="M1046.93 407.568H1068.8V403.167H1046.93V407.568Z" fill="#3484C5"/>
<path d="M321.831 431.114H165.506V162.679C165.506 157.777 169.514 153.802 174.455 153.802H312.883C317.826 153.802 321.831 157.777 321.831 162.679V431.114Z" fill="#FEFEFE"/>
<path d="M321.831 183.738H165.506V163.041C165.506 157.939 169.678 153.802 174.824 153.802H312.513C317.66 153.802 321.831 157.942 321.831 163.041V183.738Z" fill="#71B3E2"/>
<path d="M167.725 295.833H163.29V163.041C163.29 156.735 168.464 151.6 174.823 151.6H312.512C318.872 151.6 324.047 156.732 324.047 163.041V272.303H319.612V163.041C319.612 159.159 316.425 156.002 312.514 156.002H174.825C170.911 156.002 167.727 159.159 167.727 163.041V295.833H167.725Z" fill="#3484C5"/>
<path d="M163.287 431.114H167.725V336.167H163.287V431.114Z" fill="#3484C5"/>
<path d="M166.648 186.714H321.827V182.315H166.648V186.714Z" fill="#3484C5"/>
<path d="M188.884 295.909H297.559V272.902H188.884V295.909Z" fill="#DCEDF8"/>
<path d="M188.884 334.641H297.559V311.633H188.884V334.641Z" fill="#DCEDF8"/>
<path d="M181.113 167.916H185.853V163.515H181.113V167.916Z" fill="#3484C5"/>
<path d="M204.235 286.605H275.274V282.203H204.235V286.605Z" fill="#3484C5"/>
<path d="M201.985 325.334H205.581V320.935H201.985V325.334Z" fill="#3484C5"/>
<path d="M213.291 325.334H216.889V320.935H213.291V325.334Z" fill="#3484C5"/>
<path d="M224.593 325.334H228.191V320.935H224.593V325.334Z" fill="#3484C5"/>
<path d="M235.898 325.334H239.496V320.935H235.898V325.334Z" fill="#3484C5"/>
<path d="M247.203 325.334H250.801V320.935H247.203V325.334Z" fill="#3484C5"/>
<path d="M258.506 325.334H262.104V320.935H258.506V325.334Z" fill="#3484C5"/>
<path d="M269.812 325.334H273.408V320.935H269.812V325.334Z" fill="#3484C5"/>
<path d="M192.621 167.916H197.361V163.515H192.621V167.916Z" fill="#3484C5"/>
<path d="M204.131 167.916H208.866V163.515H204.131V167.916Z" fill="#3484C5"/>
<path d="M242.584 209.42C239.342 209.42 236.705 212.037 236.705 215.256C236.705 218.474 239.342 221.091 242.584 221.091C245.831 221.091 248.47 218.474 248.47 215.256C248.47 212.037 245.831 209.42 242.584 209.42ZM242.584 225.49C236.897 225.49 232.267 220.898 232.267 215.256C232.267 209.613 236.897 205.021 242.584 205.021C248.273 205.021 252.905 209.613 252.905 215.256C252.905 220.901 248.273 225.49 242.584 225.49Z" fill="#3484C5"/>
<path d="M258.584 249.978H254.146V242.486C254.146 236.511 249.243 231.65 243.219 231.65C237.195 231.65 232.296 236.511 232.296 242.486V249.978H227.86V242.486C227.86 234.084 234.748 227.249 243.219 227.249C251.69 227.249 258.584 234.084 258.584 242.486V249.978Z" fill="#3484C5"/>
<path d="M243.222 200.886C227.812 200.886 215.278 213.318 215.278 228.599C215.278 243.883 227.812 256.314 243.222 256.314C258.63 256.314 271.164 243.883 271.164 228.599C271.164 213.318 258.63 200.886 243.222 200.886ZM243.222 260.714C225.368 260.714 210.842 246.307 210.842 228.599C210.842 210.894 225.368 196.487 243.222 196.487C261.074 196.487 275.6 210.894 275.6 228.599C275.6 246.307 261.074 260.714 243.222 260.714Z" fill="#3484C5"/>
<path d="M90.2998 433.056H149.588V397.904H90.2998V433.056Z" fill="#FEFEFE"/>
<path d="M151.806 433.056H147.371V400.104H92.5209V433.056H88.083V395.705H151.806V433.056Z" fill="#3484C5"/>
<path d="M93.1134 335.891C62.1419 328.52 66.1189 304.454 66.1634 304.213L66.4909 302.401H87.5503V306.802H70.3696C70.2035 311.918 71.8131 326.299 94.1475 331.613L93.1134 335.893V335.891Z" fill="#3484C5"/>
<path d="M148.544 335.891L147.508 331.61C169.966 326.265 171.499 311.909 171.3 306.8H154.103V302.399H175.164L175.492 304.211C175.534 304.452 179.511 328.518 148.539 335.889L148.544 335.891Z" fill="#3484C5"/>
<path d="M154.363 309.517C154.363 304.691 153.558 300.088 152.15 295.833H89.4323C88.024 300.088 87.2192 304.691 87.2192 309.517C87.2192 329.33 100.217 349.156 116.944 351.85V378.354H124.638V351.85C141.367 349.158 154.363 329.33 154.363 309.517Z" fill="#DCEDF8"/>
<path d="M118.782 351.829C103.253 347.701 99.7955 328.351 99.7955 309.517C99.7955 304.691 100.603 300.088 102.011 295.833H94.464C93.0556 300.088 92.2485 304.691 92.2485 309.517C92.2485 329.33 100.217 349.156 116.943 351.85C116.943 351.85 117.975 352.045 118.782 351.829Z" fill="#FEFEFE"/>
<path d="M105.516 298.03H111.662V293.631H105.516V298.03Z" fill="#3484C5"/>
<path d="M126.855 380.553H114.723V353.655C98.1671 349.785 84.9985 330.474 84.9985 309.52C84.9985 304.649 85.7799 299.812 87.3216 295.148L87.8222 293.631H99.8305V298.032H91.0693C89.9838 301.784 89.4364 305.642 89.4364 309.52C89.4364 328.859 102.196 347.249 117.299 349.68L119.163 349.98V376.154H122.422V349.98L124.284 349.68C139.39 347.249 152.149 328.859 152.149 309.52C152.149 305.638 151.599 301.782 150.514 298.032H115.537V293.631H153.761L154.259 295.148C155.803 299.812 156.587 304.647 156.587 309.52C156.587 330.476 143.416 349.787 126.86 353.655V380.553H126.855Z" fill="#3484C5"/>
<path d="M113.075 362.395H128.911V357.996H113.075V362.395Z" fill="#3484C5"/>
<path d="M113.075 368.233H128.911V363.834H113.075V368.233Z" fill="#3484C5"/>
<path d="M140.22 392.751H101.023V378.655C101.023 376.892 102.465 375.465 104.242 375.465H137.001C138.779 375.465 140.22 376.894 140.22 378.655V392.751Z" fill="#B0D5F2"/>
<path d="M103.243 390.551H138.004V378.656C138.004 378.11 137.555 377.665 137.003 377.665H104.244C103.694 377.665 103.243 378.11 103.243 378.656V390.551ZM142.439 394.953H98.8047V378.658C98.8047 375.686 101.245 373.266 104.241 373.266H137C139.999 373.266 142.437 375.686 142.437 378.658V394.953H142.439Z" fill="#3484C5"/>
<path d="M110.105 386.744H131.137V378.421H110.105V386.744Z" fill="#FEFEFE"/>
<path d="M115.538 384.783H125.424V380.384H115.538V384.783Z" fill="#3484C5"/>
<path d="M93.6343 394.95H146.856V390.551H93.6343V394.95Z" fill="#3484C5"/>
<path d="M74.4204 400.104H166.294V395.705H74.4204V400.104Z" fill="#3484C5"/>
<path d="M98.7725 409.164C98.7725 413.805 94.9803 417.566 90.3015 417.566C85.6227 417.566 81.8281 413.805 81.8281 409.164C81.8281 404.524 85.6203 400.763 90.3015 400.763C94.9803 400.763 98.7725 404.524 98.7725 409.164Z" fill="#B0D5F2"/>
<path d="M158.062 409.164C158.062 413.805 154.269 417.566 149.591 417.566C144.912 417.566 141.12 413.805 141.12 409.164C141.12 404.524 144.914 400.763 149.591 400.763C154.269 400.763 158.062 404.524 158.062 409.164Z" fill="#B0D5F2"/>
<path d="M90.3005 402.962C86.8522 402.962 84.0449 405.742 84.0449 409.164C84.0449 412.584 86.8499 415.366 90.3005 415.366C93.7488 415.366 96.5561 412.584 96.5561 409.164C96.5561 405.744 93.7511 402.962 90.3005 402.962ZM90.3005 419.766C84.4075 419.766 79.6094 415.011 79.6094 409.164C79.6094 403.32 84.4052 398.563 90.3005 398.563C96.1935 398.563 100.992 403.322 100.992 409.164C100.992 415.011 96.1935 419.766 90.3005 419.766Z" fill="#3484C5"/>
<path d="M149.588 402.962C146.139 402.962 143.334 405.742 143.334 409.164C143.334 412.584 146.139 415.366 149.588 415.366C153.036 415.366 155.843 412.584 155.843 409.164C155.843 405.744 153.036 402.962 149.588 402.962ZM149.588 419.766C143.695 419.766 138.899 415.011 138.899 409.164C138.899 403.32 143.695 398.563 149.588 398.563C155.483 398.563 160.279 403.322 160.279 409.164C160.279 415.011 155.483 419.766 149.588 419.766Z" fill="#3484C5"/>
<path d="M88.3657 411.364H92.2375V406.962H88.3657V411.364Z" fill="#3484C5"/>
<path d="M147.651 411.364H151.525V406.962H147.651V411.364Z" fill="#3484C5"/>
<path d="M107.142 433.056H111.579V411.772H107.142V433.056Z" fill="#3484C5"/>
<path d="M117.728 433.056H122.164V411.772H117.728V433.056Z" fill="#3484C5"/>
<path d="M128.311 433.056H132.748V411.772H128.311V433.056Z" fill="#3484C5"/>
<path d="M877.601 412.153H839.986C837.772 412.153 835.98 410.371 835.98 408.178V266.769C835.98 264.577 837.772 262.795 839.986 262.795H877.601C879.814 262.795 881.608 264.577 881.608 266.769V408.178C881.608 410.373 879.814 412.153 877.601 412.153Z" fill="#DCEDF8"/>
<path d="M916.386 412.153H898.88C896.667 412.153 894.873 410.371 894.873 408.178V246.045C894.873 243.848 896.667 242.07 898.88 242.07H916.386C918.599 242.07 920.393 243.848 920.393 246.045V408.178C920.393 410.373 918.599 412.153 916.386 412.153Z" fill="#71B3E2"/>
<path d="M903.744 383.481H912.62V276.008H903.744V383.481Z" fill="#FEFEFE"/>
<path d="M969.413 412.153H937.908C935.692 412.153 933.9 410.371 933.9 408.178V261.472C933.9 259.277 935.692 257.498 937.908 257.498H969.413C971.626 257.498 973.42 259.277 973.42 261.472V408.178C973.42 410.373 971.624 412.153 969.413 412.153Z" fill="#DCEDF8"/>
<path d="M883.828 335.43H879.392V270.862C879.392 267.628 876.737 264.994 873.476 264.994H844.111C840.852 264.994 838.197 267.626 838.197 270.862V282.941H833.759V270.862C833.759 265.201 838.403 260.595 844.111 260.595H873.476C879.184 260.595 883.828 265.201 883.828 270.862V335.43Z" fill="#3484C5"/>
<path d="M922.611 330.144H918.173V250.771C918.173 247.184 915.23 244.268 911.613 244.268H903.002C899.743 244.268 897.088 246.899 897.088 250.131V330.144H892.65V250.131C892.65 244.472 897.296 239.869 903.002 239.869H911.613C917.677 239.869 922.611 244.757 922.611 250.771V330.144Z" fill="#3484C5"/>
<path d="M936.119 335.43H931.684V265.563C931.684 259.902 936.327 255.296 942.036 255.296H965.289C970.997 255.296 975.641 259.902 975.641 265.563V306.995H971.206V265.563C971.206 262.329 968.55 259.697 965.289 259.697H942.036C938.774 259.697 936.119 262.329 936.119 265.563V335.43Z" fill="#3484C5"/>
<path d="M847.129 282.834H870.458V278.435H847.129V282.834Z" fill="#3484C5"/>
<path d="M847.129 301.348H870.458V296.948H847.129V301.348Z" fill="#3484C5"/>
<path d="M847.129 319.861H870.458V315.459H847.129V319.861Z" fill="#3484C5"/>
<path d="M847.129 338.372H870.458V333.97H847.129V338.372Z" fill="#3484C5"/>
<path d="M847.129 356.885H859.811V352.483H847.129V356.885Z" fill="#3484C5"/>
<path d="M847.129 375.398H870.458V370.997H847.129V375.398Z" fill="#3484C5"/>
<path d="M847.129 393.909H870.458V389.51H847.129V393.909Z" fill="#3484C5"/>
<path d="M967.661 285.264C967.661 292.932 961.391 299.148 953.662 299.148C945.93 299.148 939.66 292.932 939.66 285.264C939.66 277.596 945.93 271.38 953.662 271.38C961.391 271.38 967.661 277.596 967.661 285.264Z" fill="#71B3E2"/>
<path d="M967.661 377.823C967.661 385.493 961.391 391.707 953.662 391.707C945.93 391.707 939.66 385.493 939.66 377.823C939.66 370.154 945.93 363.943 953.662 363.943C961.391 363.943 967.661 370.154 967.661 377.823Z" fill="#71B3E2"/>
<path d="M991.135 389.591H990.307C986.669 377.15 975.117 368.052 961.401 368.052C955.415 368.052 949.852 369.806 945.161 372.795C942.117 353.196 925.094 338.177 904.481 338.177C885.983 338.177 870.33 350.265 865.116 366.913C862.767 366.289 860.313 365.922 857.763 365.922C843.647 365.922 831.975 376.182 829.837 389.591H825.226C813.602 389.591 804.092 399.022 804.092 410.549V412.097C804.092 423.626 813.604 433.056 825.226 433.056H991.135C1002.76 433.056 1012.27 423.624 1012.27 412.097V410.549C1012.27 399.02 1002.76 389.591 991.135 389.591Z" fill="#DCEDF8"/>
<path d="M971.695 394.739H970.967C967.758 383.774 957.574 375.751 945.484 375.751C940.209 375.751 935.305 377.298 931.169 379.932C928.486 362.658 913.478 349.416 895.306 349.416C878.998 349.416 865.2 360.073 860.603 374.748C858.535 374.196 856.366 373.874 854.123 373.874C841.677 373.874 831.391 382.92 829.503 394.739H825.439C815.193 394.739 806.808 403.053 806.808 413.218V414.58C806.808 424.745 815.19 433.058 825.439 433.058H971.695C981.944 433.058 990.328 424.745 990.328 414.58V413.218C990.328 403.053 981.944 394.739 971.695 394.739Z" fill="#FEFEFE"/>
<path d="M929.465 370.679C923.509 361.586 913.443 356.156 902.534 356.156C896.768 356.156 891.106 357.69 886.168 360.593L883.908 356.806C889.532 353.504 895.97 351.757 902.534 351.757C914.952 351.757 926.406 357.936 933.183 368.286L929.465 370.681V370.679Z" fill="#3484C5"/>
<path d="M875.18 380.352H870.742C870.742 373.544 865.155 368.001 858.289 368.001V363.6C867.6 363.6 875.177 371.113 875.177 380.349L875.18 380.352Z" fill="#3484C5"/>
<path d="M991.135 435.255H825.226C812.347 435.255 801.871 424.865 801.871 412.097V410.549C801.871 397.776 812.347 387.391 825.226 387.391V391.79C814.794 391.79 806.309 400.203 806.309 410.549V412.097C806.309 422.44 814.794 430.856 825.226 430.856H991.135C1001.56 430.856 1010.05 422.44 1010.05 412.097V410.549C1010.05 400.203 1001.56 391.79 991.135 391.79H988.639L988.173 390.203C984.736 378.454 973.727 370.249 961.401 370.249C956.074 370.249 950.871 371.769 946.358 374.644L943.49 376.472L942.968 373.129C940.023 354.149 923.834 340.374 904.48 340.374C887.295 340.374 872.327 351.3 867.234 367.565L866.605 369.59L864.544 369.038C862.27 368.43 859.987 368.124 857.764 368.124V363.722C859.711 363.722 861.688 363.922 863.66 364.316C869.883 347.281 886.034 335.977 904.483 335.977C924.974 335.977 942.276 349.833 946.756 369.351C951.29 367.059 956.298 365.857 961.403 365.857C975.135 365.857 987.457 374.639 991.935 387.405C1004.44 387.825 1014.49 398.048 1014.49 410.552V412.099C1014.49 424.867 1004.01 435.257 991.135 435.257V435.255Z" fill="#3484C5"/>
<path d="M766.341 354.337H474.349V196.218C474.349 188.413 480.731 182.083 488.603 182.083H752.091C759.961 182.083 766.341 188.413 766.341 196.218V354.337Z" fill="#71B3E2"/>
<path d="M476.57 275.136H472.132V196.575C472.132 187.373 479.676 179.888 488.955 179.888H535.734V184.287H488.955C482.123 184.287 476.567 189.8 476.567 196.575V275.136H476.57Z" fill="#3484C5"/>
<path d="M768.556 283.303H764.118V196.573C764.118 189.798 758.559 184.285 751.731 184.285H600.422V179.886H751.731C761.007 179.886 768.553 187.371 768.553 196.573V283.303H768.556Z" fill="#3484C5"/>
<path d="M548.668 184.285H580.892V179.886H548.668V184.285Z" fill="#3484C5"/>
<path d="M490.193 334.98H750.821V198.926H490.193V334.98Z" fill="#FEFEFE"/>
<path d="M576.359 432.091H664.328V380.442H576.359V432.091Z" fill="#DCEDF8"/>
<path d="M576.359 406.269H664.328V380.442H576.359V406.269Z" fill="#B0D5F2"/>
<path d="M578.576 429.891H662.109V382.642H578.576V429.891ZM666.547 434.292H574.14V378.243H666.547V434.292Z" fill="#3484C5"/>
<path d="M766.341 348.01H474.349V369.874C474.349 379.398 482.137 387.12 491.74 387.12H748.949C758.553 387.12 766.341 379.398 766.341 369.874V348.01Z" fill="#FEFEFE"/>
<path d="M521.316 389.322H731.2V384.92H521.316V389.322Z" fill="#3484C5"/>
<path d="M521.674 350.214H727.887V345.813H521.674V350.214Z" fill="#3484C5"/>
<path d="M559.255 435.255H682.58V430.856H559.255V435.255Z" fill="#3484C5"/>
<path d="M617.741 286.981H511.835C510.083 286.981 508.658 285.57 508.658 283.83V222.483C508.658 220.743 510.081 219.33 511.835 219.33H617.741C619.495 219.33 620.92 220.745 620.92 222.483V283.83C620.92 285.57 619.495 286.981 617.741 286.981Z" fill="#DCEDF8"/>
<path d="M511.832 221.529C511.304 221.529 510.875 221.959 510.875 222.485V283.83C510.875 284.354 511.304 284.781 511.832 284.781H617.738C618.266 284.781 618.697 284.357 618.697 283.83V222.483C618.697 221.959 618.269 221.529 617.738 221.529H511.832ZM617.738 289.18H511.832C508.856 289.18 506.438 286.781 506.438 283.83V222.485C506.438 219.532 508.856 217.128 511.832 217.128H617.738C620.713 217.128 623.132 219.532 623.132 222.483V283.83C623.132 286.781 620.713 289.18 617.738 289.18Z" fill="#3484C5"/>
<path d="M579.619 255.354L552.512 270.878C550.804 271.855 548.671 270.632 548.671 268.679V237.634C548.671 235.68 550.807 234.458 552.512 235.434L579.619 250.954C581.324 251.934 581.324 254.377 579.619 255.356V255.354Z" fill="#71B3E2"/>
<path d="M551.238 237.291L551.062 237.337L550.892 237.634V268.679L551.062 268.974H551.406L578.513 253.451L578.682 253.159L578.513 252.862L551.406 237.337L551.238 237.291ZM551.235 273.424C550.412 273.424 549.593 273.21 548.847 272.781C547.35 271.925 546.456 270.391 546.456 268.677V237.632C546.456 235.917 547.35 234.384 548.847 233.527C550.344 232.671 552.129 232.671 553.626 233.527L580.733 249.05C582.226 249.906 583.119 251.44 583.119 253.154C583.122 254.867 582.23 256.405 580.733 257.261L553.626 272.781C552.878 273.21 552.059 273.424 551.238 273.424H551.235Z" fill="#3484C5"/>
<path d="M508.658 307.701H562.806V303.302H508.658V307.701Z" fill="#3484C5"/>
<path d="M689.596 231.905H743.746V227.504H689.596V231.905Z" fill="#3484C5"/>
<path d="M689.596 248.469H716.67V244.068H689.596V248.469Z" fill="#3484C5"/>
<path d="M689.596 280.899H743.746V276.498H689.596V280.899Z" fill="#3484C5"/>
<path d="M689.596 297.464H716.67V293.064H689.596V297.464Z" fill="#3484C5"/>
<path d="M689.596 329.893H743.744V325.492H689.596V329.893Z" fill="#3484C5"/>
<path d="M505.103 322.285H625.515V317.886H505.103V322.285Z" fill="#3484C5"/>
<path d="M646.075 255.86H682.582V219.655H646.075V255.86Z" fill="#71B3E2"/>
<path d="M646.075 305.083H682.582V268.878H646.075V305.083Z" fill="#71B3E2"/>
<path d="M646.075 336.204H682.582V318.102H646.075V336.204Z" fill="#71B3E2"/>
<path d="M748.943 389.322H728.268H731.199V387.12H748.948C758.551 387.12 766.339 379.398 766.339 369.873V283.825H768.557V369.873C768.557 380.595 759.761 389.322 748.943 389.322Z" fill="#A1BDD2"/>
<path d="M766.339 348.01H728.268V334.979H750.82V283.825H752.92V281.626H764.117V283.303H765.305V283.825H766.339V348.01Z" fill="#4891C4"/>
<path d="M764.118 283.303H765.307V281.626H764.118V283.303Z" fill="#1E6FB4"/>
<path d="M750.82 334.979H728.268V329.894H743.743V325.492H728.268V290.709C728.268 285.7 732.378 281.626 737.431 281.626H744.281V283.825H750.82V334.979Z" fill="#C0CEDA"/>
<path d="M748.948 387.12H731.199V384.922H728.268V348.012H766.339V369.876C766.339 379.4 758.551 387.122 748.948 387.122V387.12Z" fill="#C0CEDA"/>
<path d="M731.199 389.322H728.268V384.92H731.199V389.322Z" fill="#1E6FB4"/>
<path d="M728.268 329.893H743.743V325.492H728.268V329.893Z" fill="#1E6FB4"/>
<path d="M801.873 410.549C801.873 406.909 802.725 403.463 804.238 400.394C802.725 403.461 801.873 406.909 801.873 410.549ZM804.243 400.391C804.257 400.361 804.273 400.333 804.287 400.303C804.273 400.333 804.257 400.361 804.243 400.391Z" fill="#A1BDD2"/>
<path d="M835.979 360.509H834.845C834.48 360.509 834.12 360.502 833.759 360.488V303.844C834.12 303.83 834.482 303.823 834.845 303.823H835.979V360.509Z" fill="#B4C7D8"/>
<path d="M829.839 389.591H825.228V387.391H828.003C829.268 381.707 832.101 376.713 835.982 372.783V376.103C832.824 379.89 830.646 384.516 829.839 389.591ZM835.982 368.01H833.762V360.488C834.122 360.502 834.485 360.509 834.848 360.509H835.982V368.01ZM833.762 303.844V287.494H835.982V303.823H834.848C834.483 303.823 834.122 303.83 833.762 303.844Z" fill="#A1BDD2"/>
<path d="M835.98 376.103V287.494H847.287C852.338 287.494 856.45 291.568 856.45 296.58V296.949H847.128V301.35H856.45V315.462H847.128V319.863H856.45V333.973H847.128V338.374H856.45V352.486H847.128V356.887H856.45V365.955C848.211 366.33 840.903 370.203 835.98 376.108V376.103Z" fill="#A1BDD2"/>
<path d="M847.129 301.348H856.452V296.948H847.129V301.348Z" fill="#1E6FB4"/>
<path d="M847.129 319.861H856.452V315.459H847.129V319.861Z" fill="#1E6FB4"/>
<path d="M847.129 338.372H856.452V333.97H847.129V338.372Z" fill="#1E6FB4"/>
<path d="M847.129 356.885H856.452V352.483H847.129V356.885Z" fill="#1E6FB4"/>
<path d="M806.971 417.027C806.538 415.454 806.309 413.8 806.309 412.097V410.549C806.309 400.203 814.794 391.79 825.225 391.79V389.591H829.836C830.643 384.516 832.821 379.89 835.98 376.103C840.902 370.198 848.21 366.326 856.449 365.95V373.987C855.682 373.913 854.908 373.874 854.122 373.874C841.676 373.874 831.39 382.92 829.502 394.739H825.438C815.191 394.739 806.807 403.053 806.807 413.218V414.58C806.807 415.41 806.863 416.229 806.971 417.03V417.027Z" fill="#A1BDD2"/>
<path d="M855.135 430.856H825.228C816.519 430.856 809.161 424.988 806.974 417.028C806.866 416.227 806.81 415.408 806.81 414.577V413.215C806.81 403.051 815.192 394.737 825.441 394.737H829.505C831.393 382.918 841.679 373.871 854.125 373.871C854.911 373.871 855.685 373.913 856.453 373.985V426.167C856.453 427.879 855.973 429.483 855.135 430.852V430.856Z" fill="#C0CEDA"/>
<path d="M855.135 430.856H811.547C806.049 426.905 802.348 420.635 801.913 413.508C801.887 413.041 801.871 412.57 801.871 412.097V410.549C801.871 406.909 802.723 403.463 804.236 400.394L804.239 400.391C804.253 400.361 804.269 400.333 804.283 400.303C808.101 392.658 816.055 387.391 825.223 387.391V391.79C814.792 391.79 806.307 400.203 806.307 410.549V412.097C806.307 413.8 806.538 415.454 806.969 417.027C809.156 424.988 816.514 430.856 825.223 430.856H855.13H855.135Z" fill="#1E6FB4"/>
<path d="M843.056 433.056H741.663C738.76 433.056 736.402 430.719 736.402 427.84V294.909C736.402 292.03 738.76 289.693 741.663 289.693H843.056C845.964 289.693 848.317 292.027 848.317 294.909V427.84C848.317 430.719 845.964 433.056 843.056 433.056Z" fill="#FEFEFE"/>
<path d="M841.373 435.255H743.347C738.296 435.255 734.183 431.181 734.183 426.172V296.577C734.183 291.566 738.293 287.491 743.347 287.491H750.196V291.893H743.347C740.741 291.893 738.621 293.993 738.621 296.577V426.172C738.621 428.752 740.741 430.856 743.347 430.856H841.373C843.979 430.856 846.101 428.752 846.101 426.172V296.577C846.101 293.993 843.979 291.893 841.373 291.893H778.131V287.491H841.373C846.426 287.491 850.536 291.566 850.536 296.577V426.172C850.536 431.181 846.426 435.255 841.373 435.255Z" fill="#3484C5"/>
<path d="M758.836 291.893H771.223V287.494H758.836V291.893Z" fill="#3484C5"/>
<path d="M746.927 419.436H837.79V304.311H746.927V419.436Z" fill="#DCEDF8"/>
<path d="M779.615 299.503H805.103V295.102H779.615V299.503Z" fill="#3484C5"/>
<path d="M835.731 372.15L824.497 368.277L813.268 372.15V289.693H835.731V372.15Z" fill="#71B3E2"/>
<path d="M824.499 365.948L833.515 369.054V291.893H815.485V369.054L824.499 365.948ZM837.95 375.243L824.499 370.604L811.047 375.243V287.491H837.95V375.243Z" fill="#3484C5"/>
<path d="M753.649 318.362H806.644V313.961H753.649V318.362Z" fill="#3484C5"/>
<path d="M753.649 331.784H806.644V327.385H753.649V331.784Z" fill="#3484C5"/>
<path d="M753.649 345.212H806.644V340.81H753.649V345.212Z" fill="#3484C5"/>
<path d="M753.649 358.637H806.644V354.238H753.649V358.637Z" fill="#3484C5"/>
<path d="M753.649 372.064H806.644V367.665H753.649V372.064Z" fill="#3484C5"/>
<path d="M753.649 385.486H830.548V381.087H753.649V385.486Z" fill="#3484C5"/>
<path d="M753.649 398.913H830.548V394.514H753.649V398.913Z" fill="#3484C5"/>
<path d="M753.649 412.341H830.548V407.939H753.649V412.341Z" fill="#3484C5"/>
<path d="M787.895 427.413H796.824V423.011H787.895V427.413Z" fill="#3484C5"/>
<path d="M520.135 389.321H512.001V387.12H520.135V389.321ZM474.345 280.189H472.13V275.136H474.345V280.189Z" fill="#A1BDD2"/>
<path d="M520.136 348.01H512.002V334.979H520.136V348.01ZM490.192 280.189H474.347V275.136H476.569V272.124H490.192V280.192V280.189Z" fill="#4891C4"/>
<path d="M476.57 275.136H472.132V272.122H476.57V275.136Z" fill="#1E6FB4"/>
<path d="M520.136 334.979H512.002V322.285H520.136V334.979ZM520.136 317.886H512.002V307.703H520.136V317.886ZM520.136 303.301H512.002V289.18H520.136V303.301ZM506.439 280.19H490.191V272.122H506.439V280.19Z" fill="#C0CEDA"/>
<path d="M512.003 387.12H520.135V348.01H512.003V387.12Z" fill="#C0CEDA"/>
<path d="M520.135 284.779H512.001V283.122C512.001 282.192 511.556 281.361 510.873 280.823V272.122H512.866C516.874 272.122 520.132 275.354 520.132 279.329V284.779H520.135Z" fill="#A1BDD2"/>
<path d="M520.135 289.18H512.001V284.779H520.135V289.18ZM510.875 280.823C510.37 280.426 509.734 280.189 509.044 280.189H506.438V272.122H510.875V280.823Z" fill="#1E6FB4"/>
<path d="M512.003 307.701H520.135V303.302H512.003V307.701Z" fill="#1E6FB4"/>
<path d="M512.003 322.285H520.135V317.886H512.003V322.285Z" fill="#1E6FB4"/>
<path d="M300.858 430.856H294.96C293.697 429.306 292.81 427.429 292.464 425.332L290.627 414.234H300.717V285.197C300.717 281.222 303.976 277.99 307.984 277.99H321.833V280.19H311.809C310.183 280.19 308.852 281.51 308.852 283.122V331.58H307.406V340.244H306.634V414.236H296.546L298.383 425.334C298.434 425.629 298.49 425.912 298.558 426.195C298.56 426.197 298.56 426.202 298.56 426.202C298.56 426.209 298.563 426.211 298.563 426.216C298.986 427.956 299.784 429.531 300.86 430.861L300.858 430.856Z" fill="#C0CEDA"/>
<path d="M301.069 431.114H295.171C295.101 431.028 295.026 430.944 294.958 430.856H300.856C300.926 430.944 300.999 431.031 301.069 431.114Z" fill="#1E6FB4"/>
<path d="M509.044 425.016H311.806C310.18 425.016 308.849 423.696 308.849 422.083V283.125C308.849 281.51 310.18 280.192 311.806 280.192H509.044C510.67 280.192 512.001 281.512 512.001 283.125V422.083C512.001 423.696 510.67 425.016 509.044 425.016Z" fill="#71B3E2"/>
<path d="M311.066 329.072H306.628V285.197C306.628 281.222 309.887 277.99 313.894 277.99H348.305V282.391H313.894C312.331 282.391 311.063 283.654 311.063 285.199V329.074L311.066 329.072Z" fill="#3484C5"/>
<path d="M506.955 427.215V422.814C508.516 422.814 509.786 421.556 509.786 420.006V285.194C509.786 283.649 508.516 282.387 506.955 282.387H465.312V277.985H506.955C510.963 277.985 514.222 281.217 514.222 285.192V420.004C514.222 423.979 510.963 427.211 506.955 427.211V427.215Z" fill="#3484C5"/>
<path d="M318.712 409.111H501.033V291.584H318.712V409.111Z" fill="#FEFEFE"/>
<path d="M508.451 433.056H310.157C305.394 433.056 301.337 429.638 300.565 424.977L299.155 416.431H391.059L394.575 421.438H419.969L423.773 416.431H520.59L519.362 423.865C518.487 429.167 513.867 433.056 508.448 433.056H508.451Z" fill="#FEFEFE"/>
<path d="M301.768 418.635L302.757 424.622C303.356 428.236 306.465 430.856 310.157 430.856H508.451C512.802 430.856 516.472 427.768 517.177 423.508L517.981 418.635H424.882L421.078 423.64H393.419L389.903 418.635H301.768ZM508.451 435.255H310.157C304.283 435.255 299.33 431.081 298.375 425.332L296.539 414.234H392.217L395.733 419.239H418.863L422.664 414.234H523.201L521.551 424.22C520.494 430.615 514.982 435.255 508.448 435.255H508.451Z" fill="#3484C5"/>
<path d="M355.991 256.275V304.324C355.991 306.559 357.822 308.376 360.075 308.376H363.269V335.88C363.269 336.859 364.508 337.304 365.14 336.555L388.934 308.376H456.106C458.361 308.376 460.191 306.561 460.191 304.324V256.275C460.191 254.036 458.361 252.224 456.106 252.224H360.073C357.82 252.224 355.988 254.036 355.988 256.275H355.991Z" fill="#DCEDF8"/>
<path d="M364.345 339.137C363.966 339.137 363.585 339.072 363.211 338.938C361.901 338.464 361.051 337.262 361.051 335.882V310.577H360.076C356.602 310.577 353.773 307.775 353.773 304.324V256.277C353.773 252.829 356.599 250.026 360.076 250.026H423.104V254.428H360.076C359.049 254.428 358.209 255.258 358.209 256.279V304.327C358.209 305.35 359.049 306.181 360.076 306.181H365.489V332.722L387.906 306.181H456.111C457.141 306.181 457.978 305.35 457.978 304.327V256.279C457.978 255.258 457.141 254.428 456.111 254.428H442.035V250.026H456.111C459.585 250.026 462.414 252.829 462.414 256.277V304.324C462.414 307.775 459.588 310.577 456.111 310.577H389.978L366.846 337.968C366.207 338.724 365.295 339.139 364.35 339.139L364.345 339.137Z" fill="#3484C5"/>
<path d="M429.582 254.426H439.087V250.024H429.582V254.426Z" fill="#3484C5"/>
<path d="M363.98 352.553C360.737 352.553 358.101 355.17 358.101 358.386C358.101 361.602 360.737 364.219 363.98 364.219C367.225 364.219 369.866 361.602 369.866 358.386C369.866 355.168 367.225 352.553 363.98 352.553ZM363.98 368.618C358.293 368.618 353.663 364.026 353.663 358.386C353.663 352.743 358.293 348.151 363.98 348.151C369.669 348.151 374.301 352.743 374.301 358.386C374.301 364.026 369.669 368.618 363.98 368.618Z" fill="#3484C5"/>
<path d="M379.98 393.111H375.545V385.616C375.545 379.644 370.639 374.781 364.615 374.781C358.591 374.781 353.69 379.644 353.69 385.616V393.111H349.252V385.616C349.252 377.217 356.144 370.379 364.615 370.379C373.086 370.379 379.98 377.217 379.98 385.616V393.111Z" fill="#3484C5"/>
<path d="M398.68 395.312H329.342V332.564H351.471V336.966H333.778V390.911H394.242V336.966H377.761V332.564H398.68V395.312Z" fill="#3484C5"/>
<path d="M382.051 276.704C379.19 276.704 376.864 279.011 376.864 281.844C376.864 284.679 379.19 286.985 382.051 286.985C384.907 286.985 387.233 284.679 387.233 281.844C387.233 279.011 384.907 276.704 382.051 276.704ZM382.051 291.387C376.745 291.387 372.429 287.106 372.429 281.844C372.429 276.584 376.745 272.303 382.051 272.303C387.354 272.303 391.668 276.584 391.668 281.844C391.668 287.106 387.352 291.387 382.051 291.387Z" fill="#3484C5"/>
<path d="M410.594 276.704C407.738 276.704 405.41 279.011 405.41 281.844C405.41 284.679 407.738 286.985 410.594 286.985C413.455 286.985 415.778 284.679 415.778 281.844C415.778 279.011 413.455 276.704 410.594 276.704ZM410.594 291.387C405.291 291.387 400.972 287.106 400.972 281.844C400.972 276.584 405.291 272.303 410.594 272.303C415.9 272.303 420.216 276.584 420.216 281.844C420.216 287.106 415.9 291.387 410.594 291.387Z" fill="#3484C5"/>
<path d="M439.142 276.704C436.283 276.704 433.958 279.011 433.958 281.844C433.958 284.679 436.283 286.985 439.142 286.985C442.003 286.985 444.329 284.679 444.329 281.844C444.329 279.011 442.003 276.704 439.142 276.704ZM439.142 291.387C433.836 291.387 429.52 287.106 429.52 281.844C429.52 276.584 433.836 272.303 439.142 272.303C444.446 272.303 448.764 276.584 448.764 281.844C448.764 287.106 444.446 291.387 439.142 291.387Z" fill="#3484C5"/>
<path d="M414.359 339.133H487.707V334.733H414.359V339.133Z" fill="#3484C5"/>
<path d="M415.102 360.588H488.448V356.189H415.102V360.588Z" fill="#3484C5"/>
<path d="M415.845 382.043H452.517V377.644H415.845V382.043Z" fill="#3484C5"/>
<path d="M298.558 426.211C298.558 426.204 298.556 426.202 298.556 426.197C298.556 426.204 298.558 426.206 298.558 426.211ZM298.551 426.19C298.483 425.909 298.427 425.624 298.375 425.329L296.539 414.232L298.375 425.329C298.427 425.619 298.483 425.907 298.551 426.19ZM308.847 414.232H306.629V340.239H307.401V331.576H308.847V414.232Z" fill="#88A4B9"/>
<path d="M330.493 414.234H308.849V331.58H311.838V340.242H318.714V409.111H330.493V414.234Z" fill="#4891C4"/>
<path d="M330.493 409.111H318.717V340.244H323.136C325.742 340.244 328.037 341.592 329.345 343.627V395.315H330.496V409.113L330.493 409.111Z" fill="#C0CEDA"/>
<path d="M329.423 430.856H310.156C306.464 430.856 303.353 428.237 302.756 424.622L301.767 418.635H330.49V427.07C330.49 428.457 330.099 429.754 329.423 430.856Z" fill="#C0CEDA"/>
<path d="M323.133 434.371H305.662C302.172 432.965 299.477 429.991 298.558 426.213C298.558 426.206 298.555 426.204 298.555 426.199C298.555 426.199 298.555 426.197 298.553 426.192C298.485 425.912 298.429 425.624 298.377 425.332L296.541 414.234H330.493V418.635H301.77L302.759 424.622C303.358 428.237 306.467 430.856 310.159 430.856H329.426C328.13 432.963 325.798 434.371 323.136 434.371H323.133Z" fill="#1E6FB4"/>
<path d="M330.493 395.313H329.342V343.625C330.07 344.757 330.493 346.1 330.493 347.541V395.313Z" fill="#1E6FB4"/>
<path d="M317.021 432.169H220.158C217.21 432.169 214.819 429.8 214.819 426.877V347.734C214.819 344.808 217.208 342.439 220.158 342.439H317.021C319.969 342.439 322.358 344.808 322.358 347.734V426.875C322.358 429.798 319.972 432.169 317.021 432.169Z" fill="#FEFEFE"/>
<path d="M317.218 342.439H219.963C217.126 342.439 214.821 344.724 214.821 347.541V361.152H322.36V347.541C322.36 344.724 320.058 342.439 317.22 342.439H317.218Z" fill="#B0D5F2"/>
<path d="M229.837 348.713H234.273V331.58H229.837V348.713Z" fill="#3484C5"/>
<path d="M241.777 348.713H246.212V331.58H241.777V348.713Z" fill="#3484C5"/>
<path d="M253.716 348.713H258.154V331.58H253.716V348.713Z" fill="#3484C5"/>
<path d="M265.66 348.713H270.095V331.58H265.66V348.713Z" fill="#3484C5"/>
<path d="M277.603 348.713H282.039V331.58H277.603V348.713Z" fill="#3484C5"/>
<path d="M289.542 348.713H293.978V331.58H289.542V348.713Z" fill="#3484C5"/>
<path d="M301.486 348.713H305.922V331.58H301.486V348.713Z" fill="#3484C5"/>
<path d="M295.586 397.997C295.586 413.174 283.18 425.478 267.878 425.478C252.576 425.478 240.17 413.174 240.17 397.997C240.17 382.818 252.576 370.516 267.878 370.516C283.182 370.516 295.586 382.82 295.586 397.997Z" fill="#DCEDF8"/>
<path d="M284.593 397.997C284.593 407.155 277.107 414.577 267.875 414.577C258.642 414.577 251.158 407.155 251.158 397.997C251.158 388.839 258.642 381.417 267.875 381.417C277.107 381.417 284.593 388.839 284.593 397.997Z" fill="#FEFEFE"/>
<path d="M255.856 425.183C252.522 423.731 249.509 421.707 246.9 419.164L250.012 416.03C252.232 418.195 254.801 419.921 257.636 421.158L255.856 425.186V425.183Z" fill="#3484C5"/>
<path d="M267.879 427.677C265.425 427.677 262.98 427.38 260.612 426.793L261.688 422.524C263.703 423.023 265.785 423.276 267.879 423.276C281.934 423.276 293.369 411.934 293.369 397.997C293.369 384.057 281.934 372.716 267.879 372.716C253.823 372.716 242.391 384.057 242.391 397.997C242.391 403.561 244.178 408.835 247.558 413.259L244.024 415.916C240.051 410.723 237.955 404.528 237.955 397.997C237.955 381.63 251.381 368.316 267.881 368.316C284.383 368.316 297.807 381.632 297.807 397.997C297.807 414.361 284.383 427.677 267.881 427.677H267.879Z" fill="#3484C5"/>
<path d="M264.219 407.603L253.743 397.213L256.878 394.101L264.219 401.382L278.877 386.844L282.012 389.953L264.219 407.603Z" fill="#3484C5"/>
<path d="M215.137 363.351H322.359V358.952H215.137V363.351Z" fill="#3484C5"/>
<path d="M219.963 344.641C218.351 344.641 217.038 345.94 217.038 347.539V427.067C217.038 428.666 218.353 429.965 219.963 429.965H317.217C318.829 429.965 320.139 428.666 320.139 427.067V347.539C320.139 345.94 318.829 344.641 317.217 344.641H219.963ZM317.217 434.367H219.963C215.904 434.367 212.601 431.093 212.601 427.067V347.539C212.601 343.513 215.904 340.24 219.963 340.24H317.217C321.276 340.24 324.577 343.513 324.577 347.539V427.067C324.577 431.093 321.276 434.367 317.217 434.367Z" fill="#3484C5"/>
<path d="M793.903 247.535L798.628 222.182C795.926 216.191 794.389 209.571 794.389 202.587C794.389 176.028 816.099 154.5 842.874 154.5C869.651 154.5 891.356 176.028 891.356 202.587C891.356 229.145 869.651 250.672 842.874 250.672C833.418 250.672 824.624 247.948 817.166 243.303L793.9 247.537L793.903 247.535Z" fill="#B0D5F2"/>
<path d="M842.876 252.871C833.675 252.871 824.649 250.365 816.726 245.621L791.137 250.277L796.321 222.448C793.568 216.119 792.174 209.441 792.174 202.589C792.174 191.088 796.183 179.847 803.475 170.935L806.919 173.71C800.273 181.837 796.611 192.093 796.611 202.589C796.611 209.044 797.973 215.337 800.652 221.284L800.932 221.91L796.67 244.799L817.612 240.989L818.342 241.444C825.732 246.045 834.218 248.474 842.873 248.474C868.382 248.474 889.14 227.892 889.14 202.589C889.14 177.285 868.382 156.702 842.873 156.702C836.461 156.702 830.252 157.978 824.422 160.496L822.649 156.461C829.043 153.702 835.846 152.301 842.873 152.301C870.829 152.301 893.576 174.858 893.576 202.589C893.576 230.316 870.827 252.874 842.873 252.874L842.876 252.871Z" fill="#3484C5"/>
<path d="M810.039 170.259L806.89 167.159C810.076 163.976 813.674 161.227 817.578 158.992L819.796 162.807C816.229 164.846 812.946 167.354 810.039 170.262V170.259Z" fill="#3484C5"/>
<path d="M805.201 202.585C805.201 222.611 821.958 238.845 842.632 238.845C863.303 238.845 880.065 222.613 880.065 202.585C880.065 182.556 863.303 166.322 842.632 166.322C821.961 166.322 805.201 182.559 805.201 202.585Z" fill="#FEFEFE"/>
<path d="M837.853 192.355V212.812L855.714 202.58L837.853 192.355ZM837.439 217.518C836.749 217.518 836.054 217.337 835.427 216.975C834.166 216.253 833.415 214.963 833.415 213.52V191.645C833.415 190.202 834.166 188.912 835.427 188.19C836.683 187.469 838.192 187.469 839.453 188.19L858.555 199.128C859.815 199.847 860.569 201.139 860.569 202.583C860.569 204.026 859.813 205.316 858.555 206.037L839.453 216.973C838.824 217.335 838.131 217.516 837.439 217.516V217.518Z" fill="#3484C5"/>
<path d="M1014.49 412.366C1014.49 412.364 1014.49 412.357 1014.49 412.352C1014.49 412.359 1014.49 412.361 1014.49 412.366ZM1014.49 412.31C1014.49 412.289 1014.49 412.273 1014.49 412.252C1014.49 412.273 1014.49 412.289 1014.49 412.31ZM1014.49 412.229C1014.49 412.215 1014.49 412.199 1014.49 412.183C1014.49 412.197 1014.49 412.215 1014.49 412.229ZM1014.49 412.162C1014.49 412.141 1014.49 412.118 1014.49 412.097V410.549C1014.49 407.259 1013.79 404.127 1012.54 401.289C1013.79 404.127 1014.49 407.259 1014.49 410.549V412.097C1014.49 412.118 1014.49 412.141 1014.49 412.162ZM973.421 368.182V313.684C974.126 312.9 974.874 312.16 975.639 311.434V362.732H973.421V368.182Z" fill="#B4C7D8"/>
<path d="M973.424 368.18C973.281 368.124 973.143 368.068 973.003 368.013C965.659 360.423 961.376 350.21 961.376 339.465C961.376 329.745 964.845 320.309 971.148 312.893L972.858 314.325C973.04 314.107 973.23 313.893 973.424 313.682V368.18Z" fill="#A1BDD2"/>
<path d="M995.688 430.309C994.986 429.432 994.567 428.325 994.567 427.123V424.473H987.582L987.504 424.33C989.292 421.494 990.328 418.153 990.328 414.58V413.218C990.328 406.459 986.62 400.517 981.118 397.292V396.276H979.115C978.561 396.034 977.997 395.821 977.417 395.633V391.874H981.118V387.422H977.417V383.022H981.118V378.398C984.367 381.619 986.84 385.644 988.174 390.204L988.639 391.791H991.135C1001.56 391.791 1010.05 400.204 1010.05 410.55V412.097C1010.05 420.886 1003.93 428.281 995.688 430.309Z" fill="#A1BDD2"/>
<path d="M987.504 424.329L982 413.983H977.419V409.582H981.12V405.129H977.419V400.728H981.12V397.289C986.622 400.512 990.33 406.457 990.33 413.215V414.577C990.33 418.15 989.291 421.492 987.506 424.327L987.504 424.329ZM979.117 396.278H977.419V395.635C977.999 395.823 978.563 396.036 979.117 396.278Z" fill="#C0CEDA"/>
<path d="M1004.79 430.856H996.195C996.013 430.687 995.842 430.503 995.685 430.306C1003.92 428.278 1010.05 420.884 1010.05 412.095V410.547C1010.05 400.201 1001.56 391.788 991.133 391.788H988.637L988.171 390.201C986.838 385.642 984.365 381.616 981.116 378.395V374.525C978.114 372.681 975.393 370.483 973 368.008C973.138 368.063 973.278 368.119 973.421 368.175V368.184C981.934 371.602 988.824 378.535 991.933 387.398C1001.15 387.707 1009.03 393.338 1012.54 401.285C1013.79 404.122 1014.49 407.255 1014.49 410.545V412.092C1014.49 412.113 1014.49 412.136 1014.49 412.157C1014.49 412.166 1014.49 412.171 1014.49 412.178C1014.49 412.197 1014.49 412.211 1014.48 412.224C1014.48 412.234 1014.48 412.243 1014.48 412.248C1014.48 412.269 1014.48 412.285 1014.48 412.306C1014.48 412.317 1014.48 412.331 1014.48 412.347C1014.48 412.354 1014.48 412.359 1014.48 412.361C1014.43 416.812 1013.09 420.953 1010.84 424.468H1010.78V424.556C1009.2 427.009 1007.16 429.148 1004.79 430.851L1004.79 430.856Z" fill="#1E6FB4"/>
<path d="M1002.59 432.255H999.742C998.373 432.255 997.124 431.724 996.195 430.856H1004.79C1004.08 431.359 1003.35 431.83 1002.59 432.255Z" fill="#1E6FB4"/>
<path d="M975.64 309.225L975.182 308.775L975.64 308.348V309.225Z" fill="#B4C7D8"/>
<path d="M1011.52 430.056H1005.66C1004.03 430.056 1002.7 428.735 1002.7 427.123V415.092C1002.7 413.478 1004.03 412.16 1005.66 412.16H1011.52C1013.15 412.16 1014.48 413.478 1014.48 415.092V427.123C1014.48 428.735 1013.15 430.056 1011.52 430.056Z" fill="#71B3E2"/>
<path d="M1005.66 414.357C1005.26 414.357 1004.92 414.691 1004.92 415.09V427.121C1004.92 427.52 1005.26 427.854 1005.66 427.854H1011.53C1011.93 427.854 1012.27 427.52 1012.27 427.121V415.09C1012.27 414.691 1011.92 414.357 1011.53 414.357H1005.66ZM1011.53 432.253H1005.66C1002.8 432.253 1000.48 429.951 1000.48 427.121V415.09C1000.48 412.259 1002.8 409.958 1005.66 409.958H1011.53C1014.38 409.958 1016.7 412.259 1016.7 415.09V427.121C1016.7 429.951 1014.38 432.253 1011.53 432.253Z" fill="#3484C5"/>
<path d="M1048.25 339.465C1048.25 317.898 1030.62 300.415 1008.88 300.415C987.135 300.415 969.508 317.898 969.508 339.465C969.508 353.931 977.464 366.537 989.252 373.282V411.784L994.834 422.274H1021.88L1028.5 411.784V373.282C1040.29 366.539 1048.25 353.933 1048.25 339.465Z" fill="#FEFEFE"/>
<path d="M989.252 384.032V414.083L994.834 422.271H1021.88L1028.5 414.083V384.032H989.252Z" fill="#B0D5F2"/>
<path d="M1028.5 411.784L1021.88 422.271H994.834L989.252 411.784H1028.5Z" fill="#71B3E2"/>
<path d="M1023.11 424.473H993.496L987.032 412.327V374.533C974.818 367.031 967.287 353.713 967.287 339.467C967.287 329.752 970.757 320.313 977.061 312.896L980.453 315.733C974.822 322.36 971.723 330.787 971.723 339.467C971.723 352.574 978.865 364.801 990.358 371.377L991.467 372.013V411.239L996.167 420.074H1020.65L1026.28 411.15V372.013L1027.39 371.377C1038.89 364.804 1046.03 352.576 1046.03 339.467C1046.03 319.149 1029.36 302.617 1008.87 302.617C1004.05 302.617 999.351 303.524 994.923 305.304L993.255 301.227C998.221 299.232 1003.48 298.218 1008.87 298.218C1031.81 298.218 1050.47 316.724 1050.47 339.469C1050.47 353.715 1042.93 367.034 1030.72 374.535V412.417L1023.11 424.476V424.473Z" fill="#3484C5"/>
<path d="M984.253 311.87L981.1 308.775C983.568 306.299 984.845 305.575 987.388 304.127L988.141 303.698L990.354 307.508L989.596 307.942C987.131 309.343 986.296 309.816 984.251 311.867L984.253 311.87Z" fill="#3484C5"/>
<path d="M983.331 387.424H1034.42V383.024H983.331V387.424Z" fill="#3484C5"/>
<path d="M983.331 396.275H1034.42V391.876H983.331V396.275Z" fill="#3484C5"/>
<path d="M983.331 405.129H1034.42V400.73H983.331V405.129Z" fill="#3484C5"/>
<path d="M983.331 413.983H1034.42V409.582H983.331V413.983Z" fill="#3484C5"/>
<path d="M1029.59 339.488C1029.59 350.838 1020.32 360.036 1008.88 360.036C997.437 360.036 988.161 350.836 988.161 339.488C988.161 328.142 997.437 318.942 1008.88 318.942C1020.32 318.942 1029.59 328.142 1029.59 339.488Z" fill="#B0D5F2"/>
<path d="M1014.07 313.854L1002.25 339.093L1000.27 335.898H1020.61L1018.91 339.052L1004.38 366.092L1002.64 365.266L1014.91 337.142L1016.91 340.298H996.508L998.293 337.1L1011.87 312.747L1014.07 313.854Z" fill="#3484C5"/>
<path d="M1173.9 403.382C1173.9 396.48 1168.26 390.89 1161.3 390.89C1157.77 390.89 1154.6 392.324 1152.31 394.644C1150.03 392.324 1146.85 390.89 1143.33 390.89C1136.37 390.89 1130.73 396.48 1130.73 403.382C1130.73 406.74 1132.08 409.788 1134.26 412.032L1152.26 429.8L1170.72 411.649L1171.44 410.763C1172.98 408.693 1173.89 406.141 1173.89 403.382H1173.9Z" fill="#FEFEFE"/>
<path d="M1143.32 393.09C1137.6 393.09 1132.95 397.705 1132.95 403.38C1132.95 406.046 1133.98 408.575 1135.85 410.505L1152.27 426.698L1169.16 410.085L1169.7 409.401C1170.98 407.672 1171.68 405.573 1171.68 403.38C1171.68 397.702 1167.02 393.09 1161.3 393.09C1158.5 393.09 1155.87 394.187 1153.9 396.18L1152.31 397.788L1150.73 396.18C1148.76 394.185 1146.13 393.09 1143.33 393.09H1143.32ZM1152.26 432.9L1132.69 413.591C1129.98 410.805 1128.51 407.19 1128.51 403.38C1128.51 395.278 1135.15 388.688 1143.32 388.688C1146.62 388.688 1149.74 389.749 1152.31 391.707C1154.88 389.746 1158 388.688 1161.29 388.688C1169.47 388.688 1176.11 395.278 1176.11 403.38C1176.11 406.515 1175.11 409.519 1173.23 412.062L1172.39 413.092L1152.26 432.9H1152.26Z" fill="#3484C5"/>
</g>
</svg>
