<svg width="12" height="16" viewBox="0 0 12 16" fill="none" xmlns="http://www.w3.org/2000/svg">
<path d="M6 3.75C5.4561 3.75 4.92442 3.91128 4.47218 4.21346C4.01995 4.51563 3.66747 4.94512 3.45933 5.44762C3.25119 5.95012 3.19673 6.50305 3.30284 7.0365C3.40895 7.56995 3.67086 8.05995 4.05546 8.44454C4.44005 8.82914 4.93005 9.09105 5.4635 9.19716C5.99695 9.30327 6.54988 9.24881 7.05238 9.04067C7.55488 8.83253 7.98437 8.48005 8.28654 8.02782C8.58871 7.57558 8.75 7.0439 8.75 6.5C8.74917 5.77091 8.45918 5.07192 7.94363 4.55637C7.42808 4.04082 6.72909 3.75083 6 3.75ZM6 7.75C5.75277 7.75 5.5111 7.67669 5.30554 7.53934C5.09998 7.40199 4.93976 7.20676 4.84515 6.97835C4.75054 6.74995 4.72579 6.49861 4.77402 6.25614C4.82225 6.01366 4.9413 5.79093 5.11612 5.61612C5.29093 5.4413 5.51366 5.32225 5.75614 5.27402C5.99861 5.22579 6.24995 5.25054 6.47835 5.34515C6.70676 5.43976 6.90199 5.59998 7.03934 5.80554C7.17669 6.0111 7.25 6.25277 7.25 6.5C7.24964 6.83141 7.11782 7.14914 6.88348 7.38348C6.64914 7.61782 6.33141 7.74964 6 7.75ZM6 0.75C4.47553 0.75172 3.014 1.35807 1.93604 2.43604C0.858075 3.514 0.25172 4.97553 0.25 6.5C0.25 11.3349 5.35262 14.9624 5.56987 15.1144C5.69595 15.2027 5.84611 15.25 6 15.25C6.15389 15.25 6.30405 15.2027 6.43013 15.1144C7.39622 14.403 8.28025 13.5864 9.06594 12.6796C10.8219 10.6603 11.75 8.52344 11.75 6.5C11.7483 4.97553 11.1419 3.514 10.064 2.43604C8.986 1.35807 7.52447 0.75172 6 0.75ZM7.95638 11.6696C7.36045 12.354 6.70584 12.985 6 13.5554C5.29415 12.985 4.63953 12.354 4.04362 11.6696C2.99725 10.4604 1.75 8.58187 1.75 6.5C1.75 5.37283 2.19777 4.29183 2.9948 3.4948C3.79183 2.69777 4.87283 2.25 6 2.25C7.12717 2.25 8.20817 2.69777 9.0052 3.4948C9.80223 4.29183 10.25 5.37283 10.25 6.5C10.25 8.58187 9.00275 10.4604 7.95638 11.6696Z" fill="#256FFF"/>
</svg>
