<svg width="40" height="40" viewBox="0 0 40 40" fill="none" xmlns="http://www.w3.org/2000/svg">
<path d="M27.6376 24.6973C29.0189 22.6965 29.8295 20.2708 29.8295 17.655C29.8295 10.7986 24.2722 5.24023 17.4147 5.24023C10.5572 5.24023 5 10.7986 5 17.6549C5 24.5113 10.5572 30.0696 17.4147 30.0696C20.277 30.0696 22.9108 29.0986 25.0106 27.4717L32.299 34.7601L35 32.0595L27.6376 24.6973ZM17.4147 27.3957C12.0436 27.3957 7.67393 23.0261 7.67393 17.6549C7.67393 12.2838 12.0435 7.9141 17.4147 7.9141C22.786 7.9141 27.1555 12.2837 27.1555 17.6549C27.1555 23.0261 22.7858 27.3957 17.4147 27.3957Z" fill="#256FFF"/>
<path d="M16.2348 10.0142C13.1365 10.9042 10.7025 13.3382 9.81201 16.4366L11.6482 16.9633C12.3534 14.5021 14.3004 12.5548 16.7615 11.8496L16.2348 10.0142Z" fill="#256FFF"/>
</svg>
