<svg width="64" height="64" viewBox="0 0 64 64" fill="none" xmlns="http://www.w3.org/2000/svg">
<g clip-path="url(#clip0_223_2684)">
<path d="M5.93932 16.0888L16.7139 21.6979V31.0223C16.7139 32.3105 17.5761 34.1308 21.6836 35.4872C24.4581 36.4034 28.1225 36.908 32.0017 36.908C35.881 36.908 39.5455 36.4034 42.32 35.4872C46.4274 34.1308 47.2896 32.3105 47.2896 31.0223C47.2896 31.0138 47.2896 31.0053 47.2895 30.9968V21.698L50.4397 20.0581V26.3867C50.4397 27.077 50.9995 27.6366 51.6897 27.6366C52.3799 27.6366 52.9396 27.077 52.9396 26.3867V18.7565L58.0641 16.0888C58.4776 15.8735 58.737 15.4462 58.737 14.9801C58.737 14.514 58.4776 14.0866 58.0641 13.8714L32.5788 0.604118C32.2171 0.415752 31.7862 0.415877 31.4245 0.604118L5.93932 13.8714C5.52584 14.0866 5.2666 14.514 5.2666 14.9801C5.2666 15.4462 5.52584 15.8735 5.93932 16.0888ZM44.7895 27.6234C44.1378 27.25 43.3262 26.8899 42.3199 26.5575C39.5454 25.6413 35.8809 25.1367 32.0016 25.1367C28.1223 25.1367 24.4578 25.6413 21.6835 26.5575C20.677 26.8899 19.8655 27.25 19.2137 27.6235V18.2885C19.2137 17.8798 20.0802 16.9857 22.4673 16.1975C24.9956 15.3626 28.3815 14.9028 32.0016 14.9028C35.6217 14.9028 39.0076 15.3627 41.5359 16.1975C43.923 16.9859 44.7894 17.8799 44.7894 18.2885V27.6234H44.7895ZM41.536 33.1135C39.0076 33.9484 35.6218 34.4082 32.0017 34.4082C28.3818 34.4082 24.9957 33.9483 22.4674 33.1135C20.0803 32.3251 19.2138 31.431 19.2138 31.0224C19.2138 30.6138 20.0803 29.7196 22.4674 28.9314C24.9957 28.0965 28.3816 27.6367 32.0017 27.6367C35.6218 27.6367 39.0078 28.0966 41.536 28.9314C43.9089 29.715 44.7793 30.6032 44.7895 31.0152V31.0226V31.0267C44.7837 31.437 43.915 32.3279 41.536 33.1135ZM52.9395 15.9383V14.022L54.78 14.9801L52.9395 15.9383ZM32.0016 3.122L50.4396 12.7205V17.2397L47.2894 18.8796V18.2884C47.2894 17.0002 46.4273 15.1799 42.3199 13.8235C39.5454 12.9073 35.8809 12.4027 32.0016 12.4027C28.1223 12.4027 24.4578 12.9073 21.6835 13.8235C17.576 15.1799 16.7138 17.0002 16.7138 18.2884V18.8795L9.22342 14.9801L32.0016 3.122Z" fill="#256FFF"/>
<path d="M59.9133 39.5029H1.25294C0.562599 39.5029 0 40.0623 0 40.7526C0 41.4108 0.505976 41.9501 1.15145 41.9987C1.18369 42.0013 1.21632 42.0027 1.24919 42.0028C1.63567 42.0864 2.83987 43.9031 2.83987 47.5539C2.83987 51.2119 1.63092 53.0285 1.25307 53.105C0.562724 53.105 0.00312485 53.6646 0.00312485 54.355C0.00312485 55.0453 0.562724 55.6049 1.25307 55.6049H25.8688V62.2872C25.8688 62.7187 26.0913 63.1197 26.4574 63.3479C26.8235 63.5762 27.2815 63.5994 27.6688 63.4096L32.0015 61.2858L36.334 63.4096C36.5082 63.4949 36.6963 63.5372 36.884 63.5372C37.1143 63.5372 37.3439 63.4737 37.5455 63.3479C37.9116 63.1197 38.1341 62.7187 38.1341 62.2872V55.6049H59.9132C62.5962 55.6049 63.9999 51.5547 63.9999 47.5539C64 43.5531 62.5963 39.5029 59.9133 39.5029ZM32.0015 52.9127C29.0394 52.9127 26.6294 50.5028 26.6294 47.5406C26.6294 44.5784 29.0393 42.1684 32.0015 42.1684C34.9637 42.1684 37.3736 44.5783 37.3736 47.5406C37.3736 50.5028 34.9637 52.9127 32.0015 52.9127ZM4.29092 42.0028H26.412C25.0017 43.4261 24.1296 45.3834 24.1296 47.5406C24.1296 49.7112 25.0127 51.6795 26.4385 53.105H4.29092C4.98489 51.5895 5.33975 49.5656 5.33975 47.5539C5.33975 45.5423 4.98489 43.5182 4.29092 42.0028ZM35.6343 60.2825L32.5517 58.7714C32.2047 58.6013 31.7985 58.6013 31.4514 58.7714L28.3687 60.2825V55.6048H35.6342V60.2825H35.6343ZM59.9133 53.1049H37.5645C38.9903 51.6795 39.8734 49.7112 39.8734 47.5404C39.8734 45.3833 39.0012 43.426 37.591 42.0027H59.9094C60.2958 42.0863 61.5001 43.903 61.5001 47.5538C61.5001 51.2119 60.2913 53.0284 59.9133 53.1049Z" fill="#256FFF"/>
</g>
<defs>
<clipPath id="clip0_223_2684">
<rect width="64" height="64" fill="white"/>
</clipPath>
</defs>
</svg>
