<svg width="64" height="64" viewBox="0 0 64 64" fill="none" xmlns="http://www.w3.org/2000/svg">
<g clip-path="url(#clip0_223_2662)">
<path d="M62.9333 56.8298V32C62.9304 31.835 62.8884 31.673 62.8107 31.5274H62.8213L60.2101 26.3061C59.6725 25.2176 58.5623 24.5298 57.3483 24.5333H50.1333V23.4666C50.1333 23.1837 50.0209 22.9125 49.8208 22.7125L44.0459 16.9375C43.662 16.5577 43.1872 16.2826 42.6667 16.1386V8.94395L44.8 8.37115V10.9546V10.9621C44.7988 12.0574 45.3462 13.0806 46.2581 13.6874C46.5752 13.8989 46.981 13.9252 47.3227 13.7564C47.6644 13.5875 47.8901 13.2492 47.9147 12.8689C47.9393 12.4886 47.7592 12.124 47.4421 11.9125C47.1239 11.7011 46.9328 11.3442 46.9333 10.9621V10.9546V7.70448C47.68 7.27322 48.0936 6.43491 47.9816 5.57997C47.8696 4.72504 47.2539 4.0216 46.4213 3.79728L32.5483 0.0724792C32.1891 -0.0235087 31.8109 -0.0235087 31.4517 0.0724792L17.5787 3.79728C16.6457 4.05199 15.9986 4.8995 15.9986 5.86661C15.9986 6.83372 16.6457 7.68124 17.5787 7.93595L21.3333 8.94395V15.9999H21.2661C20.3178 16.0004 19.4188 16.4225 18.8128 17.1519L14.1195 22.7839C13.9578 22.9748 13.8683 23.2165 13.8667 23.4666V24.5333H6.65173C5.43865 24.529 4.3287 25.215 3.78987 26.3018L1.17867 31.5231H1.18933C1.11099 31.67 1.06893 31.8335 1.06667 32V56.8298C0.408799 57.2079 0.002288 57.9079 0 58.6666V60.8C0 61.9782 0.955126 62.9333 2.13333 62.9333H16.2965C16.6746 63.5912 17.3746 63.9977 18.1333 64H45.8667C46.6254 63.9977 47.3254 63.5912 47.7035 62.9333H61.8667C63.0449 62.9333 64 61.9782 64 60.8V58.6666C63.9977 57.9079 63.5912 57.2079 62.9333 56.8298ZM46.9333 56.5333H45.8667V33.0666H60.8V56.5333H46.9333ZM35.2 56.5333H28.8V44.8H35.2V56.5333ZM36.2667 42.6666H27.7333C27.1442 42.6666 26.6667 43.1442 26.6667 43.7333V56.5333H20.2667V33.0666H43.7333V56.5333H37.3333V43.7333C37.3333 43.1442 36.8558 42.6666 36.2667 42.6666ZM48 24.5333V26.6666H16V24.5333H48ZM45.8667 28.7999V30.9333H18.1333V28.7999H45.8667ZM57.3483 26.6666C57.7526 26.6653 58.1225 26.8941 58.3019 27.2565L60.1408 30.9333H48V28.7999C49.1782 28.7999 50.1333 27.8448 50.1333 26.6666H57.3483ZM32 2.13328L45.8816 5.86661H45.8677L32.0053 9.59995L18.1333 5.85808L32 2.13328ZM23.4667 9.51675L31.4517 11.6607C31.8109 11.7574 32.1892 11.7574 32.5483 11.6607L40.5333 9.51675V15.9999H23.4667V9.51675ZM20.4469 18.5173C20.6495 18.2741 20.9496 18.1334 21.2661 18.1333H41.7824C42.0656 18.1331 42.3373 18.2455 42.5376 18.4458L46.4917 22.3999H17.2107L20.4469 18.5173ZM5.69813 27.2565C5.87752 26.8941 6.2474 26.6653 6.65173 26.6666H13.8667C13.8667 27.8448 14.8218 28.7999 16 28.7999V30.9333H3.8592L5.69813 27.2565ZM2.13333 58.6666H16V60.8H2.13333V58.6666ZM17.0667 56.5333H3.2V33.0666H18.1333V56.5333H17.0667ZM18.1333 61.8666V58.6666H45.8667V61.8666H18.1333ZM61.8667 60.8H48V58.6666H61.8667V60.8Z" fill="#256FFF"/>
<path d="M28.8001 35.2C28.211 35.2 27.7334 35.6775 27.7334 36.2666V38.4C27.7334 38.9891 28.211 39.4666 28.8001 39.4666C29.3892 39.4666 29.8667 38.9891 29.8667 38.4V36.2666C29.8667 35.6775 29.3892 35.2 28.8001 35.2Z" fill="#256FFF"/>
<path d="M13.8665 36.2666C13.2774 36.2666 12.7998 36.7442 12.7998 37.3333V39.4666C12.7998 40.0557 13.2774 40.5333 13.8665 40.5333C14.4556 40.5333 14.9331 40.0557 14.9331 39.4666V37.3333C14.9331 36.7442 14.4556 36.2666 13.8665 36.2666Z" fill="#256FFF"/>
<path d="M7.46657 36.2666C6.87747 36.2666 6.3999 36.7442 6.3999 37.3333V39.4666C6.3999 40.0557 6.87747 40.5333 7.46657 40.5333C8.05567 40.5333 8.53324 40.0557 8.53324 39.4666V37.3333C8.53324 36.7442 8.05567 36.2666 7.46657 36.2666Z" fill="#256FFF"/>
<path d="M13.8665 42.6667C13.2774 42.6667 12.7998 43.1443 12.7998 43.7334V45.8668C12.7998 46.4559 13.2774 46.9334 13.8665 46.9334C14.4556 46.9334 14.9331 46.4559 14.9331 45.8668V43.7334C14.9331 43.1443 14.4556 42.6667 13.8665 42.6667Z" fill="#256FFF"/>
<path d="M7.46657 42.6667C6.87747 42.6667 6.3999 43.1443 6.3999 43.7334V45.8668C6.3999 46.4559 6.87747 46.9334 7.46657 46.9334C8.05567 46.9334 8.53324 46.4559 8.53324 45.8668V43.7334C8.53324 43.1443 8.05567 42.6667 7.46657 42.6667Z" fill="#256FFF"/>
<path d="M13.8665 49.0667C13.2774 49.0667 12.7998 49.5442 12.7998 50.1333V52.2667C12.7998 52.8558 13.2774 53.3333 13.8665 53.3333C14.4556 53.3333 14.9331 52.8558 14.9331 52.2667V50.1333C14.9331 49.5442 14.4556 49.0667 13.8665 49.0667Z" fill="#256FFF"/>
<path d="M7.46657 49.0667C6.87747 49.0667 6.3999 49.5442 6.3999 50.1333V52.2667C6.3999 52.8558 6.87747 53.3333 7.46657 53.3333C8.05567 53.3333 8.53324 52.8558 8.53324 52.2667V50.1333C8.53324 49.5442 8.05567 49.0667 7.46657 49.0667Z" fill="#256FFF"/>
<path d="M56.5335 36.2666C55.9444 36.2666 55.4668 36.7442 55.4668 37.3333V39.4666C55.4668 40.0557 55.9444 40.5333 56.5335 40.5333C57.1226 40.5333 57.6001 40.0557 57.6001 39.4666V37.3333C57.6001 36.7442 57.1226 36.2666 56.5335 36.2666Z" fill="#256FFF"/>
<path d="M50.1336 36.2666C49.5445 36.2666 49.0669 36.7442 49.0669 37.3333V39.4666C49.0669 40.0557 49.5445 40.5333 50.1336 40.5333C50.7227 40.5333 51.2002 40.0557 51.2002 39.4666V37.3333C51.2002 36.7442 50.7227 36.2666 50.1336 36.2666Z" fill="#256FFF"/>
<path d="M56.5335 42.6667C55.9444 42.6667 55.4668 43.1443 55.4668 43.7334V45.8668C55.4668 46.4559 55.9444 46.9334 56.5335 46.9334C57.1226 46.9334 57.6001 46.4559 57.6001 45.8668V43.7334C57.6001 43.1443 57.1226 42.6667 56.5335 42.6667Z" fill="#256FFF"/>
<path d="M50.1336 42.6667C49.5445 42.6667 49.0669 43.1443 49.0669 43.7334V45.8668C49.0669 46.4559 49.5445 46.9334 50.1336 46.9334C50.7227 46.9334 51.2002 46.4559 51.2002 45.8668V43.7334C51.2002 43.1443 50.7227 42.6667 50.1336 42.6667Z" fill="#256FFF"/>
<path d="M56.5335 49.0667C55.9444 49.0667 55.4668 49.5442 55.4668 50.1333V52.2667C55.4668 52.8558 55.9444 53.3333 56.5335 53.3333C57.1226 53.3333 57.6001 52.8558 57.6001 52.2667V50.1333C57.6001 49.5442 57.1226 49.0667 56.5335 49.0667Z" fill="#256FFF"/>
<path d="M50.1336 49.0667C49.5445 49.0667 49.0669 49.5442 49.0669 50.1333V52.2667C49.0669 52.8558 49.5445 53.3333 50.1336 53.3333C50.7227 53.3333 51.2002 52.8558 51.2002 52.2667V50.1333C51.2002 49.5442 50.7227 49.0667 50.1336 49.0667Z" fill="#256FFF"/>
<path d="M35.2 35.2C34.6109 35.2 34.1333 35.6775 34.1333 36.2666V38.4C34.1333 38.9891 34.6109 39.4666 35.2 39.4666C35.7891 39.4666 36.2666 38.9891 36.2666 38.4V36.2666C36.2666 35.6775 35.7891 35.2 35.2 35.2Z" fill="#256FFF"/>
</g>
<defs>
<clipPath id="clip0_223_2662">
<rect width="64" height="64" fill="white"/>
</clipPath>
</defs>
</svg>
