<svg width="64" height="64" viewBox="0 0 64 64" fill="none" xmlns="http://www.w3.org/2000/svg">
<path d="M32.1221 31.2315C32.8166 31.2315 33.3795 30.6686 33.3795 29.9742C33.3795 29.2797 32.8166 28.7168 32.1221 28.7168C31.4277 28.7168 30.8647 29.2797 30.8647 29.9742C30.8647 30.6686 31.4277 31.2315 32.1221 31.2315Z" fill="#256FFF"/>
<path d="M64 32.5244C64 30.7159 63.3249 29.063 62.2152 27.8011C62.8021 26.829 63.1179 25.7112 63.1179 24.5579C63.1179 22.3531 61.976 20.3475 60.142 19.2147C60.1509 19.078 60.1567 18.941 60.1567 18.8039C60.1567 16.4232 58.8356 14.2991 56.7806 13.2332C56.7891 13.0954 56.7944 12.9571 56.7944 12.8185C56.7944 9.11799 53.7833 6.10749 50.0821 6.10749C49.5179 6.10749 48.9655 6.17837 48.4289 6.31474C47.169 4.26224 44.9379 2.98787 42.4646 2.98787C41.872 2.98787 41.2866 3.06487 40.7211 3.21087C40.1593 2.90299 39.4227 2.82837 38.8465 2.82837C36.4609 2.82837 34.3181 3.92487 32.8551 5.65712H8.16875C8.135 5.65712 8.10125 5.65849 8.06763 5.66112C6.45225 5.79212 5.18687 7.16449 5.18687 8.78574V10.3185H3.50688C1.57313 10.3185 0 11.8916 0 13.8254V54.1591C0 56.9816 2.58525 59.3662 5.38263 59.1627L28.6644 59.1626C29.3081 60.3854 30.5796 61.1719 32.0001 61.1719C33.4051 61.1719 34.6635 60.4019 35.3136 59.2019C36.3794 59.752 37.5785 60.0629 38.8466 60.0629C41.7607 60.0627 44.3135 58.428 45.7055 55.9945C46.4309 56.2362 47.1876 56.3605 47.966 56.3605C51.775 56.3605 54.8979 53.3716 55.1151 49.616C58.7054 49.0886 61.4707 45.989 61.4707 42.2546C61.4707 40.9837 61.1463 39.747 60.5405 38.6529C62.6125 37.3966 64 35.1196 64 32.5244ZM33.2051 57.7954C33.035 58.3167 32.5508 58.6671 32 58.6671C31.4492 58.6671 30.965 58.3169 30.7949 57.7954C30.7677 57.7121 30.7326 57.6337 30.6908 57.5606C30.5394 57.0392 30.0589 56.6577 29.4888 56.6577L5.33362 56.6579C3.95475 56.6579 2.50487 55.7122 2.50487 54.1591V13.8254C2.50487 13.2729 2.95438 12.8234 3.50688 12.8234H5.18687V50.02C5.18687 51.6757 6.87138 53.2527 8.52112 53.1486L30.9829 53.1487C31.2675 54.9045 32.0829 56.4745 33.2524 57.673C33.2348 57.7126 33.2189 57.7534 33.2051 57.7954ZM56.8377 37.1817C56.1461 37.1817 55.5853 37.7425 55.5853 38.4342C55.5853 39.126 56.146 39.6867 56.8377 39.6867C57.2915 39.6867 57.7349 39.6425 58.1654 39.5614C58.6847 40.3579 58.9658 41.2915 58.9658 42.255C58.9658 44.7072 57.168 46.7469 54.8214 47.1271C53.9254 44.1567 51.1601 42.0361 47.9659 42.0361C47.9199 42.0361 47.8634 42.0371 47.7939 42.0446C47.106 42.118 46.608 42.7351 46.6815 43.4229C46.7523 44.0856 47.3263 44.573 47.985 44.541C50.3144 44.5504 52.2897 46.2917 52.5849 48.6032C52.6104 48.7975 52.6232 48.9979 52.6232 49.1985C52.6232 51.7666 50.534 53.8559 47.9659 53.8559C47.5007 53.8559 47.0479 53.7877 46.6119 53.6554C46.7485 53.0477 46.8231 52.4156 46.8231 51.7652C46.8231 51.0736 46.2624 50.5127 45.5706 50.5127C44.8789 50.5127 44.3181 51.0735 44.3181 51.7652C44.3181 54.9594 41.8635 57.558 38.8464 57.5581C35.8293 57.5581 33.3746 54.9594 33.3746 51.7652V35.6421C33.3746 34.9505 32.8139 34.3896 32.1221 34.3896C31.4305 34.3896 30.8696 34.9504 30.8696 35.6421V50.644L8.47625 50.6439C8.1105 50.6439 7.69175 50.4727 7.69175 50.0201V8.78574C7.69175 8.47237 7.92675 8.20524 8.23312 8.16199H31.398C31.0581 9.08324 30.8699 10.082 30.8699 11.1261V24.3567C30.8699 25.0484 31.4306 25.6092 32.1224 25.6092C32.814 25.6092 33.3749 25.0485 33.3749 24.3567V11.1261C33.3749 8.59187 34.9206 6.43399 37.0646 5.64987C36.8866 6.11524 36.9967 6.66187 37.3857 7.01962C37.8949 7.48787 38.6872 7.45462 39.1555 6.94537C40.0044 6.02224 41.2105 5.49287 42.4647 5.49287C44.3159 5.49287 45.9566 6.60312 46.6447 8.32062C46.8574 8.85199 46.9651 9.41474 46.9651 9.99312C46.9651 11.6779 46.0365 13.2086 44.5416 13.9876C43.9282 14.3074 43.6901 15.0637 44.0099 15.6772C44.2332 16.1057 44.6696 16.351 45.1216 16.351C45.3166 16.351 45.5145 16.3054 45.6994 16.209C48.0252 14.9967 49.47 12.6151 49.47 9.99312C49.47 9.54799 49.4285 9.10849 49.3465 8.67737C49.5874 8.63499 49.8329 8.61249 50.0822 8.61249C52.4022 8.61249 54.2896 10.4994 54.2896 12.8186C54.2896 13.1311 54.2555 13.4407 54.1876 13.7419C53.8951 15.0529 52.981 16.1536 51.7422 16.6862C51.1069 16.9594 50.8133 17.696 51.0864 18.3315C51.2903 18.8057 51.7521 19.0896 52.2375 19.0896C52.4025 19.0896 52.5703 19.0567 52.7316 18.9874C54.2221 18.3465 55.4175 17.1885 56.1152 15.7606C57.0648 16.4567 57.6519 17.5732 57.6519 18.8041C57.6519 19.0869 57.6206 19.3695 57.559 19.6437C57.4276 20.2274 57.7451 20.8411 58.2961 21.073C59.7035 21.6639 60.613 23.0319 60.613 24.5581C60.613 25.1392 60.4798 25.7055 60.229 26.2177C59.2189 25.6724 58.064 25.3622 56.8377 25.3622C56.1461 25.3622 55.5853 25.923 55.5853 26.6147C55.5853 27.3065 56.146 27.8672 56.8377 27.8672C59.4059 27.8672 61.4951 29.9566 61.4951 32.5247C61.4951 35.0929 59.4059 37.1817 56.8377 37.1817Z" fill="#256FFF"/>
<path d="M39.5813 21.6409C39.7871 21.7687 40.0154 21.8295 40.2409 21.8295C40.6597 21.8295 41.0689 21.6197 41.3062 21.2378C41.6712 20.6502 41.4907 19.8779 40.9031 19.513C39.3899 18.5733 38.9234 16.578 39.8632 15.0649C40.2282 14.4773 40.0477 13.7052 39.4599 13.3403C38.8724 12.9754 38.1001 13.1557 37.7353 13.7435C36.0668 16.4297 36.8949 19.9725 39.5813 21.6409Z" fill="#256FFF"/>
<path d="M41.7799 41.3431C40.7156 42.0666 39.2613 41.7891 38.5378 40.725C38.1489 40.1529 37.3702 40.0044 36.7979 40.3934C36.2259 40.7823 36.0774 41.5611 36.4663 42.1333C37.4013 43.5089 38.9252 44.2501 40.4751 44.2501C41.4113 44.2501 42.3572 43.9795 43.1881 43.4145C43.7601 43.0256 43.9086 42.2468 43.5197 41.6746C43.1309 41.1024 42.3518 40.954 41.7799 41.3431Z" fill="#256FFF"/>
<path d="M39.1862 34.2527C40.0076 35.7816 42.1222 34.4252 41.393 33.0674C40.784 31.9337 41.2108 30.516 42.3445 29.907C42.9538 29.5797 43.1825 28.8202 42.8551 28.211C42.528 27.6019 41.7687 27.373 41.159 27.7004C38.8087 28.9629 37.9236 31.9021 39.1862 34.2527Z" fill="#256FFF"/>
<path d="M52.3451 34.6982C51.7486 34.5171 51.2584 34.1146 50.9646 33.5647C50.6709 33.0149 50.6089 32.3836 50.7899 31.7872C50.9909 31.1252 50.6171 30.4258 49.9554 30.2249C49.2938 30.0242 48.594 30.3976 48.3931 31.0594C48.0176 32.2962 48.1463 33.6051 48.7553 34.7451C49.3644 35.8849 50.3809 36.7196 51.6176 37.0949C53.1215 37.5518 53.9183 35.1754 52.3451 34.6982Z" fill="#256FFF"/>
<path d="M50.3536 26.0592C50.8906 26.0592 51.3874 25.7108 51.5514 25.1702C51.7524 24.5082 51.3787 23.8088 50.717 23.6079C49.4856 23.2341 48.7878 21.9282 49.1616 20.6968C49.3626 20.0349 48.9888 19.3354 48.3271 19.1346C47.6655 18.9339 46.9657 19.3072 46.7648 19.9691C45.9897 22.5222 47.4363 25.2297 49.9893 26.0047C50.1106 26.0416 50.233 26.0592 50.3536 26.0592Z" fill="#256FFF"/>
<path d="M26.5221 15.4172H12.1251C11.4334 15.4172 10.8726 15.978 10.8726 16.6697C10.8726 17.3614 11.4333 17.9222 12.1251 17.9222H26.5221C27.2137 17.9222 27.7746 17.3615 27.7746 16.6697C27.7746 15.978 27.2137 15.4172 26.5221 15.4172Z" fill="#256FFF"/>
<path d="M26.5221 21.1484H12.1251C11.4334 21.1484 10.8726 21.7092 10.8726 22.4009C10.8726 23.0926 11.4333 23.6534 12.1251 23.6534H26.5221C27.2137 23.6534 27.7746 23.0927 27.7746 22.4009C27.7746 21.7092 27.2137 21.1484 26.5221 21.1484Z" fill="#256FFF"/>
<path d="M26.5221 26.8799H12.1251C11.4334 26.8799 10.8726 27.4406 10.8726 28.1324C10.8726 28.824 11.4333 29.3849 12.1251 29.3849H26.5221C27.2137 29.3849 27.7746 28.8241 27.7746 28.1324C27.7746 27.4406 27.2137 26.8799 26.5221 26.8799Z" fill="#256FFF"/>
<path d="M26.5221 32.6113H12.1251C11.4334 32.6113 10.8726 33.1721 10.8726 33.8638C10.8726 34.5556 11.4333 35.1163 12.1251 35.1163H26.5221C27.2137 35.1163 27.7746 34.5556 27.7746 33.8638C27.7746 33.1721 27.2137 32.6113 26.5221 32.6113Z" fill="#256FFF"/>
<path d="M26.5221 38.3428H12.1251C11.4334 38.3428 10.8726 38.9035 10.8726 39.5953C10.8726 40.287 11.4333 40.8478 12.1251 40.8478H26.5221C27.2137 40.8478 27.7746 40.287 27.7746 39.5953C27.7746 38.9035 27.2137 38.3428 26.5221 38.3428Z" fill="#256FFF"/>
</svg>
