<svg width="64" height="64" viewBox="0 0 64 64" fill="none" xmlns="http://www.w3.org/2000/svg">
<path d="M32.0605 20.4556C29.3062 20.4556 27.0659 18.2163 27.0659 15.4634C27.0659 12.7109 29.3062 10.4712 32.0605 10.4712C34.8145 10.4712 37.0552 12.7109 37.0552 15.4634C37.0552 18.2163 34.8145 20.4556 32.0605 20.4556ZM32.0605 12.9712C30.6851 12.9712 29.5659 14.0894 29.5659 15.4639C29.5659 16.8379 30.6851 17.9561 32.0605 17.9561C33.436 17.9561 34.5552 16.8379 34.5552 15.4639C34.5552 14.0894 33.436 12.9712 32.0605 12.9712Z" fill="#256FFF"/>
<path d="M32.0605 49.3903C31.979 49.3903 31.8965 49.3815 31.8164 49.3654C31.7368 49.3488 31.6577 49.3253 31.583 49.2941C31.5068 49.2628 31.4341 49.2238 31.3667 49.1788C31.2979 49.1339 31.2339 49.0812 31.1768 49.024C31.1191 48.9664 31.0664 48.9015 31.0215 48.8341C30.9766 48.7653 30.938 48.6925 30.9067 48.6178C30.8755 48.5426 30.8506 48.464 30.8354 48.3839C30.8193 48.3029 30.8105 48.2213 30.8105 48.1403C30.8105 48.0577 30.8193 47.9767 30.8354 47.8951C30.8506 47.8151 30.8755 47.7365 30.9067 47.6613C30.938 47.5865 30.9766 47.5138 31.0215 47.4454C31.0664 47.3776 31.1191 47.3141 31.1768 47.255C31.2339 47.1979 31.2979 47.1466 31.3667 47.1002C31.4341 47.0553 31.5068 47.0167 31.583 46.9855C31.6577 46.9542 31.7368 46.9303 31.8164 46.9142C31.978 46.8815 32.1431 46.8815 32.3042 46.9142C32.3843 46.9303 32.4629 46.9542 32.5391 46.9855C32.6143 47.0167 32.6865 47.0553 32.7539 47.1002C32.8228 47.1466 32.8867 47.1979 32.9443 47.255C33.0015 47.3141 33.0542 47.3776 33.0991 47.4454C33.144 47.5138 33.1831 47.5865 33.2144 47.6613C33.2456 47.7365 33.2705 47.8151 33.2852 47.8951C33.3018 47.9762 33.3105 48.0577 33.3105 48.1403C33.3105 48.2213 33.3018 48.3029 33.2852 48.3839C33.2705 48.464 33.2456 48.5426 33.2144 48.6178C33.1831 48.6925 33.144 48.7653 33.0991 48.8341C33.0542 48.9015 33.0015 48.9664 32.9443 49.024C32.8867 49.0812 32.8228 49.1339 32.7539 49.1788C32.6865 49.2238 32.6143 49.2628 32.5391 49.2941C32.4629 49.3253 32.3843 49.3488 32.3042 49.3654C32.2241 49.3815 32.1416 49.3903 32.0605 49.3903Z" fill="#256FFF"/>
<path d="M25.0498 32.5459H16.2935C15.603 32.5459 15.0435 31.9863 15.0435 31.2959C15.0435 30.6055 15.603 30.0459 16.2935 30.0459H25.0498C25.7402 30.0459 26.2998 30.6055 26.2998 31.2959C26.2998 31.9863 25.7402 32.5459 25.0498 32.5459Z" fill="#256FFF"/>
<path d="M25.0498 39.8823H16.2935C15.603 39.8823 15.0435 39.3223 15.0435 38.6323C15.0435 37.9419 15.603 37.3823 16.2935 37.3823H25.0498C25.7402 37.3823 26.2998 37.9419 26.2998 38.6323C26.2998 39.3223 25.7402 39.8823 25.0498 39.8823Z" fill="#256FFF"/>
<path d="M25.0498 47.2183H16.2935C15.603 47.2183 15.0435 46.6587 15.0435 45.9683C15.0435 45.2778 15.603 44.7183 16.2935 44.7183H25.0498C25.7402 44.7183 26.2998 45.2778 26.2998 45.9683C26.2998 46.6587 25.7402 47.2183 25.0498 47.2183Z" fill="#256FFF"/>
<path d="M47.8271 32.5459H39.0713C38.3809 32.5459 37.8213 31.9863 37.8213 31.2959C37.8213 30.6055 38.3809 30.0459 39.0713 30.0459H47.8271C48.5176 30.0459 49.0771 30.6055 49.0771 31.2959C49.0771 31.9863 48.5176 32.5459 47.8271 32.5459Z" fill="#256FFF"/>
<path d="M47.8271 39.8823H39.0713C38.3809 39.8823 37.8213 39.3223 37.8213 38.6323C37.8213 37.9419 38.3809 37.3823 39.0713 37.3823H47.8271C48.5176 37.3823 49.0771 37.9419 49.0771 38.6323C49.0771 39.3223 48.5176 39.8823 47.8271 39.8823Z" fill="#256FFF"/>
<path d="M47.8271 47.2183H39.0713C38.3809 47.2183 37.8213 46.6587 37.8213 45.9683C37.8213 45.2778 38.3809 44.7183 39.0713 44.7183H47.8271C48.5176 44.7183 49.0771 45.2778 49.0771 45.9683C49.0771 46.6587 48.5176 47.2183 47.8271 47.2183Z" fill="#256FFF"/>
<path d="M60.3706 24.4346H55.5425V3.84961C55.5425 1.72705 53.8145 0 51.6909 0H12.4297C10.3062 0 8.57861 1.72705 8.57861 3.84961V24.4346H3.75C3.05957 24.4346 2.5 24.9946 2.5 25.6846V54.6582C2.5 57.6079 4.90039 60.0073 7.85156 60.0073H24.6602C26.2886 62.4878 29.0591 64 32.0605 64C35.0615 64 37.832 62.4878 39.4604 60.0073H56.2695C59.2202 60.0073 61.6206 57.6079 61.6206 54.6582V25.6846C61.6206 24.9941 61.061 24.4346 60.3706 24.4346ZM32.0605 54.498C31.0996 53.189 29.9053 51.5811 28.2529 51.5811H11.0786V24.0322H28.2529C28.5786 24.0322 28.8843 24.208 29.0503 24.4912C29.4678 25.2026 30.0894 25.7236 30.8105 25.9937V41.8013C30.8105 42.4917 31.3701 43.0513 32.0605 43.0513C32.751 43.0513 33.3105 42.4917 33.3105 41.8013V25.9941C34.0317 25.7236 34.6533 25.2026 35.0708 24.4912C35.2368 24.208 35.5425 24.0322 35.8682 24.0322H53.0425V51.5811H35.8677C34.2158 51.5811 33.021 53.189 32.0605 54.498ZM15.5239 19.2246V11.6929C17.7788 11.1484 19.5181 9.35254 19.9917 7.08398H44.1289C44.6025 9.35254 46.3418 11.1484 48.5972 11.6929V19.2246C47.1494 19.5522 45.9033 20.3647 45.0781 21.5322H35.8677C34.6592 21.5322 33.5273 22.1812 32.9146 23.2261C32.7388 23.5249 32.4531 23.7036 32.1494 23.7036H31.9712C31.668 23.7036 31.3818 23.5249 31.2065 23.2261C30.5933 22.1812 29.4614 21.5322 28.2529 21.5322H19.0425C18.2173 20.3647 16.9712 19.5522 15.5239 19.2246ZM12.4297 2.5H51.6909C52.436 2.5 53.0425 3.10547 53.0425 3.84961V21.5322H50.1421C50.6919 21.3994 51.0972 20.9043 51.0972 20.3174V10.6099C51.0972 9.93799 50.5659 9.38623 49.8945 9.36084C47.9917 9.28809 46.501 7.73877 46.501 5.83398C46.501 5.14355 45.9409 4.58398 45.251 4.58398H18.8701C18.1797 4.58398 17.6201 5.14355 17.6201 5.83398C17.6201 7.73877 16.1289 9.28809 14.2261 9.36084C13.5547 9.38623 13.0239 9.93799 13.0239 10.6099V20.3174C13.0239 20.9043 13.4292 21.3994 13.979 21.5322H11.0786V3.84961C11.0786 3.10547 11.6846 2.5 12.4297 2.5ZM26.4688 58.1636C26.2505 57.7593 25.8281 57.5073 25.3691 57.5073H7.85156C6.2793 57.5073 5 56.2295 5 54.6582V26.9346H8.57812V52.8311C8.57812 53.5215 9.1377 54.0811 9.82812 54.0811H28.2515C28.6743 54.1094 29.689 55.4922 30.0708 56.0127C30.3242 56.3574 30.5679 56.6899 30.8105 56.98V61.3765C28.978 61.0098 27.3779 59.8477 26.4688 58.1636ZM59.1206 54.6582C59.1206 56.2295 57.8418 57.5073 56.2695 57.5073H38.752C38.2925 57.5073 37.8701 57.7593 37.6519 58.1636C36.7427 59.8477 35.1426 61.0098 33.3105 61.3765V56.98C33.5532 56.6899 33.7969 56.3579 34.0498 56.0127C34.4316 55.4922 35.4463 54.1099 35.8682 54.0811H54.2925C54.9829 54.0811 55.5425 53.5215 55.5425 52.8311V26.9346H59.1211V54.6582H59.1206Z" fill="#256FFF"/>
</svg>
