<svg width="32" height="32" viewBox="0 0 32 32" fill="none" xmlns="http://www.w3.org/2000/svg">
<path d="M32 0H0V32H32V0Z" fill="#44678D"/>
<path d="M9.26382 10.4451C9.93384 12.1253 10.783 13.7093 11.9014 15.1314C12.0497 15.3206 12.2367 15.4889 12.4337 15.6259C12.7214 15.8265 12.9928 15.756 13.1098 15.4218C13.2336 15.0711 13.3471 14.3603 13.3539 13.9921C13.3723 13.0298 13.3511 12.3992 13.3002 11.4381C13.2672 10.8225 13.0517 10.282 12.16 10.1189C11.8846 10.0683 11.859 9.83811 12.0359 9.6085C12.4042 9.13048 12.9173 9.0543 13.4737 9.02415C14.3755 8.97469 15.2806 9.01505 16.1835 9.02415C16.5513 9.02757 16.9212 9.05766 17.2834 9.13783C17.7559 9.24242 18.0088 9.57891 18.0867 10.0472C18.127 10.2888 18.1477 10.5371 18.1421 10.7816C18.1186 11.8319 18.0688 12.8817 18.057 13.9315C18.052 14.3436 18.0816 14.7659 18.1684 15.1672C18.2899 15.7265 18.6649 15.8669 19.0484 15.4628C19.5353 14.9496 19.9647 14.3721 20.3677 13.7855C21.0998 12.7187 21.6467 11.5478 22.1174 10.3406C22.3609 9.7177 22.5473 9.5824 23.2072 9.58072C24.4476 9.57786 25.688 9.57673 26.9285 9.58072C27.1484 9.58184 27.3785 9.6029 27.5861 9.66998C27.9231 9.77912 28.0569 10.0582 27.978 10.4123C27.7938 11.2422 27.3522 11.9475 26.8792 12.6256C26.1202 13.7134 25.3248 14.7752 24.5479 15.8505C24.4488 15.9875 24.3615 16.1336 24.2803 16.2819C23.9898 16.8151 24.0099 17.114 24.4336 17.5579C25.1081 18.2644 25.8302 18.9254 26.4835 19.6512C26.9582 20.1792 27.3975 20.7521 27.7737 21.3552C28.2495 22.1179 27.9556 22.8363 27.0667 22.9642C26.5076 23.0444 23.7761 22.9649 23.6349 22.9642C22.9006 22.9609 22.2569 22.7022 21.7385 22.1958C21.162 21.632 20.638 21.0136 20.0844 20.4253C19.9176 20.248 19.7396 20.078 19.5476 19.9296C19.0948 19.5789 18.6503 19.6568 18.4388 20.1968C18.258 20.6606 18.1018 21.8786 18.0945 21.9826C18.0565 22.5266 17.7156 22.8733 17.1155 22.9068C15.3831 23.0023 13.7043 22.8062 12.1404 21.9554C10.8149 21.2346 9.75649 20.2156 8.83962 19.0271C7.38315 17.1394 6.23273 15.0644 5.18243 12.9285C5.12875 12.8193 4.06495 10.5208 4.03637 10.4122C3.94134 10.0487 4.02999 9.70138 4.33248 9.58184C4.52106 9.50734 8.02844 9.58159 8.08678 9.58477C8.64644 9.61554 9.02807 9.8553 9.26382 10.4451Z" fill="white"/>
</svg>
