<svg width="64" height="64" viewBox="0 0 64 64" fill="none" xmlns="http://www.w3.org/2000/svg">
<path d="M61.383 2.07595C61.009 1.92095 60.579 2.00695 60.293 2.29295L48 14.5859V6.99995C48 4.23895 45.761 1.99995 43 1.99995C40.239 1.99995 38 4.23895 38 6.99995V24.5859L34 28.5859V4.99995C34 3.34295 32.657 1.99995 31 1.99995H5C3.343 1.99995 2 3.34295 2 4.99995V46.9999C2 48.6569 3.343 49.9999 5 49.9999H12.586L2.293 60.2929C1.903 60.6839 1.903 61.3169 2.293 61.7069C2.481 61.8949 2.735 61.9999 3 61.9999H61C61.552 61.9999 62 61.5519 62 60.9999V2.99995C62 2.59595 61.757 2.23095 61.383 2.07595ZM26.724 49.9999H31C32.657 49.9999 34 48.6569 34 46.9999V41.7239L38 37.7239V40.9999C37.998 41.1549 38.033 41.3079 38.1 41.4469L42.1 49.4469C42.346 49.9409 42.947 50.1419 43.441 49.8959C43.635 49.7989 43.793 49.6419 43.89 49.4469L47.89 41.4469C47.961 41.3089 47.999 41.1559 48 40.9999V28.7239L52 24.7239V51.9999H24.724L26.724 49.9999ZM46 38.9999L44 37.4999V13.9999H46V38.9999ZM44.747 43.2699C43.608 42.9269 42.392 42.9269 41.253 43.2699L40.267 41.2999L43 39.2499L45.733 41.2999L44.747 43.2699ZM43.833 45.0999L43 46.7639L42.167 45.0999C42.716 44.9859 43.284 44.9859 43.833 45.0999ZM40 13.9999H42V37.4999L40 38.9999V13.9999ZM46 11.9999H40V9.99994H46V11.9999ZM40 6.99995C40 5.34295 41.343 3.99995 43 3.99995C44.657 3.99995 46 5.34295 46 6.99995V7.99995H40V6.99995ZM38 27.4139V34.8999L34 38.8999V31.4139L38 27.4139ZM4 46.9999V4.99995C4 4.44795 4.448 3.99995 5 3.99995H31C31.552 3.99995 32 4.44795 32 4.99995V46.9999C32 47.5519 31.552 47.9999 31 47.9999H5C4.448 47.9999 4 47.5519 4 46.9999ZM54 59.9999V56.9999H52V59.9999H48V56.9999H46V59.9999H42V56.9999H40V59.9999H36V56.9999H34V59.9999H30V56.9999H28V59.9999H24V56.9999H22V59.9999H18V56.9999H16V59.9999H5.414L15.414 49.9999H23.9L21.6 52.2929C21.21 52.6839 21.21 53.3169 21.6 53.7069C21.788 53.8949 22.044 54.0009 22.31 53.9999H53C53.552 53.9999 54 53.5519 54 52.9999V22.3099C54 21.7579 53.552 21.3099 53 21.3099C52.735 21.3099 52.481 21.4149 52.293 21.6029L48 25.8999V17.4139L60 5.41395V15.9999H57V17.9999H60V21.9999H57V23.9999H60V27.9999H57V29.9999H60V33.9999H57V35.9999H60V39.9999H57V41.9999H60V45.9999H57V47.9999H60V51.9999H57V53.9999H60V59.9999H54Z" fill="#256FFF"/>
<path d="M31 46V6C31 5.448 30.552 5 30 5H6C5.448 5 5 5.448 5 6V46C5 46.552 5.448 47 6 47H30C30.552 47 31 46.552 31 46ZM7 36V28H17V36H7ZM29 18V26H19V18H29ZM17 26H7V18H17V26ZM19 28H29V36H19V28ZM7 7H29V16H7V7ZM29 45H7V38H29V45Z" fill="#256FFF"/>
<path d="M11 25H13V23H15V21H13V19H11V21H9V23H11V25Z" fill="#256FFF"/>
<path d="M13.4139 29.1719L11.9999 30.5859L10.5859 29.1719L9.17188 30.5859L10.5859 31.9999L9.17188 33.4139L10.5859 34.8279L11.9999 33.4139L13.4139 34.8279L14.8279 33.4139L13.4139 31.9999L14.8279 30.5859L13.4139 29.1719Z" fill="#256FFF"/>
<path d="M21 21H27V23H21V21Z" fill="#256FFF"/>
<path d="M21 31V33H27V31H24H21Z" fill="#256FFF"/>
<path d="M15 39H21V41H15V39Z" fill="#256FFF"/>
<path d="M15 42H21V44H15V42Z" fill="#256FFF"/>
<path d="M24.0001 30.9999C24.554 30.9999 25.0031 30.5508 25.0031 29.9969C25.0031 29.443 24.554 28.9939 24.0001 28.9939C23.4461 28.9939 22.9971 29.443 22.9971 29.9969C22.9971 30.5508 23.4461 30.9999 24.0001 30.9999Z" fill="#256FFF"/>
<path d="M24.0001 35.0019C24.554 35.0019 25.0031 34.5528 25.0031 33.9989C25.0031 33.4449 24.554 32.9958 24.0001 32.9958C23.4461 32.9958 22.9971 33.4449 22.9971 33.9989C22.9971 34.5528 23.4461 35.0019 24.0001 35.0019Z" fill="#256FFF"/>
</svg>
