<svg width="64" height="64" viewBox="0 0 64 64" fill="none" xmlns="http://www.w3.org/2000/svg">
<g clip-path="url(#clip0_223_2752)">
<path d="M54.3998 16.0001H29.8665C29.2777 16.0001 28.7998 15.5222 28.7998 14.9334V9.60011C28.7998 9.01131 29.2777 8.53345 29.8665 8.53345H54.3998C54.9886 8.53345 55.4665 9.01131 55.4665 9.60011V14.9334C55.4665 15.5222 54.9886 16.0001 54.3998 16.0001ZM30.9331 13.8668H53.3331V10.6668H30.9331V13.8668Z" fill="#256FFF"/>
<path d="M42.6665 26.6666H29.8665C29.2777 26.6666 28.7998 26.1888 28.7998 25.6V19.2C28.7998 18.6112 29.2777 18.1333 29.8665 18.1333H42.6665C43.2553 18.1333 43.7331 18.6112 43.7331 19.2V25.6C43.7331 26.1888 43.2553 26.6666 42.6665 26.6666ZM30.9331 24.5333H41.5998V20.2666H30.9331V24.5333Z" fill="#256FFF"/>
<path d="M50.1331 36.2667H29.8665C29.2777 36.2667 28.7998 35.7888 28.7998 35.2V29.8667C28.7998 29.2779 29.2777 28.8 29.8665 28.8H50.1331C50.7219 28.8 51.1998 29.2779 51.1998 29.8667V35.2C51.1998 35.7888 50.7219 36.2667 50.1331 36.2667ZM30.9331 34.1334H49.0665V30.9334H30.9331V34.1334Z" fill="#256FFF"/>
<path d="M20.2665 30.9334H11.7332C11.1444 30.9334 10.6665 30.4555 10.6665 29.8667C10.6665 29.2779 11.1444 28.8 11.7332 28.8H20.2665C20.8553 28.8 21.3332 29.2779 21.3332 29.8667C21.3332 30.4555 20.8553 30.9334 20.2665 30.9334Z" fill="#256FFF"/>
<path d="M15.9998 35.2H11.7332C11.1444 35.2 10.6665 34.7221 10.6665 34.1333C10.6665 33.5445 11.1444 33.0667 11.7332 33.0667H15.9998C16.5886 33.0667 17.0665 33.5445 17.0665 34.1333C17.0665 34.7221 16.5886 35.2 15.9998 35.2Z" fill="#256FFF"/>
<path d="M20.2665 21.3333H11.7332C11.1444 21.3333 10.6665 20.8554 10.6665 20.2666C10.6665 19.6778 11.1444 19.2 11.7332 19.2H20.2665C20.8553 19.2 21.3332 19.6778 21.3332 20.2666C21.3332 20.8554 20.8553 21.3333 20.2665 21.3333Z" fill="#256FFF"/>
<path d="M15.9998 25.5999H11.7332C11.1444 25.5999 10.6665 25.122 10.6665 24.5332C10.6665 23.9444 11.1444 23.4666 11.7332 23.4666H15.9998C16.5886 23.4666 17.0665 23.9444 17.0665 24.5332C17.0665 25.122 16.5886 25.5999 15.9998 25.5999Z" fill="#256FFF"/>
<path d="M20.2665 11.7332H11.7332C11.1444 11.7332 10.6665 11.2553 10.6665 10.6665C10.6665 10.0777 11.1444 9.59985 11.7332 9.59985H20.2665C20.8553 9.59985 21.3332 10.0777 21.3332 10.6665C21.3332 11.2553 20.8553 11.7332 20.2665 11.7332Z" fill="#256FFF"/>
<path d="M15.9998 16H11.7332C11.1444 16 10.6665 15.5222 10.6665 14.9334C10.6665 14.3446 11.1444 13.8667 11.7332 13.8667H15.9998C16.5886 13.8667 17.0665 14.3446 17.0665 14.9334C17.0665 15.5222 16.5886 16 15.9998 16Z" fill="#256FFF"/>
<path d="M55.4668 46.9334H8.53346C7.94466 46.9334 7.4668 46.4556 7.4668 45.8668V41.6001C7.4668 41.0113 7.94466 40.5334 8.53346 40.5334H55.4668C56.0556 40.5334 56.5335 41.0113 56.5335 41.6001V45.8668C56.5335 46.4556 56.0556 46.9334 55.4668 46.9334ZM9.60013 44.8001H54.4001V42.6668H9.60013V44.8001Z" fill="#256FFF"/>
<path d="M60.8 44.8H55.4666C54.8778 44.8 54.4 44.3221 54.4 43.7333V42.6666H9.59997V43.7333C9.59997 44.3221 9.1221 44.8 8.5333 44.8H3.19997C2.61117 44.8 2.1333 44.3221 2.1333 43.7333V3.19997C2.1333 2.61117 2.61117 2.1333 3.19997 2.1333H60.8C61.3888 2.1333 61.8666 2.61117 61.8666 3.19997V43.7333C61.8666 44.3221 61.3888 44.8 60.8 44.8ZM56.5333 42.6666H59.7333V4.26663H4.26663V42.6666H7.46663V41.6C7.46663 41.0112 7.9445 40.5333 8.5333 40.5333H55.4666C56.0554 40.5333 56.5333 41.0112 56.5333 41.6V42.6666Z" fill="#256FFF"/>
<path d="M62.9333 4.26664H1.06667C0.477867 4.26664 0 3.78877 0 3.19997C0 2.61117 0.477867 2.1333 1.06667 2.1333H62.9333C63.5221 2.1333 64 2.61117 64 3.19997C64 3.78877 63.5221 4.26664 62.9333 4.26664Z" fill="#256FFF"/>
<path d="M31.9998 6.4C31.411 6.4 30.9331 5.92213 30.9331 5.33333V1.06667C30.9331 0.477867 31.411 0 31.9998 0C32.5886 0 33.0664 0.477867 33.0664 1.06667V5.33333C33.0664 5.92213 32.5886 6.4 31.9998 6.4Z" fill="#256FFF"/>
<path d="M33.0667 55.4667C32.4779 55.4667 32 54.9888 32 54.4V45.8667C32 45.2779 32.4779 44.8 33.0667 44.8C33.6555 44.8 34.1333 45.2779 34.1333 45.8667V54.4C34.1333 54.9888 33.6555 55.4667 33.0667 55.4667Z" fill="#256FFF"/>
<path d="M33.0667 63.9999C30.1259 63.9999 27.7334 61.6074 27.7334 58.6666C27.7334 55.7258 30.1259 53.3333 33.0667 53.3333C36.0075 53.3333 38.4001 55.7258 38.4001 58.6666C38.4001 61.6074 36.0075 63.9999 33.0667 63.9999ZM33.0667 55.4666C31.3025 55.4666 29.8667 56.9023 29.8667 58.6666C29.8667 60.4309 31.3025 61.8666 33.0667 61.8666C34.831 61.8666 36.2667 60.4309 36.2667 58.6666C36.2667 56.9023 34.831 55.4666 33.0667 55.4666Z" fill="#256FFF"/>
</g>
<defs>
<clipPath id="clip0_223_2752">
<rect width="64" height="64" fill="white"/>
</clipPath>
</defs>
</svg>
