<svg width="32" height="32" viewBox="0 0 32 32" fill="none" xmlns="http://www.w3.org/2000/svg">
<path d="M32 0H0V32H32V0Z" fill="#DC472E"/>
<path d="M18.4853 20.4846C18.4846 20.3652 18.4495 20.241 18.4052 20.1293C18.3463 19.9826 18.2199 19.9095 18.0612 19.8941C17.8751 19.8758 17.7263 19.951 17.5914 20.0703C17.5374 20.1174 17.5128 20.1876 17.5128 20.1876L17.5156 23.9772V24.0706C17.5156 24.0706 17.5479 24.1141 17.5528 24.1197C17.6624 24.2384 17.7901 24.3325 17.9538 24.3662C18.2234 24.4217 18.4137 24.3093 18.4663 24.0593C18.4797 23.9969 18.4874 23.9323 18.4874 23.8684C18.4888 22.74 18.4909 21.6123 18.4853 20.4846ZM18.4853 20.4846C18.4846 20.3652 18.4495 20.241 18.4052 20.1293C18.3463 19.9826 18.2199 19.9095 18.0612 19.8941C17.8751 19.8758 17.7263 19.951 17.5914 20.0703C17.5374 20.1174 17.5128 20.1876 17.5128 20.1876L17.5156 23.9772V24.0706C17.5156 24.0706 17.5479 24.1141 17.5528 24.1197C17.6624 24.2384 17.7901 24.3325 17.9538 24.3662C18.2234 24.4217 18.4137 24.3093 18.4663 24.0593C18.4797 23.9969 18.4874 23.9323 18.4874 23.8684C18.4888 22.74 18.4909 21.6123 18.4853 20.4846ZM22.7285 14.7697C18.2438 14.6735 13.7569 14.6735 9.27144 14.7697C7.71543 14.8027 6.47119 16.075 6.47119 17.6317V24.6365C6.47119 26.1939 7.71543 27.4663 9.27144 27.4993C13.7569 27.5955 18.2438 27.5955 22.7285 27.4993C24.2852 27.4663 25.5295 26.1939 25.5295 24.6365V17.6317C25.5295 16.0751 24.2852 14.8027 22.7285 14.7697ZM10.5887 25.2749H9.29531V17.9632H7.95628V16.74H11.9306V17.9604H10.5887V25.2749ZM15.2174 22.24V25.2755H14.0722V24.5818C14.0307 24.626 14.0076 24.6499 13.9858 24.6744C13.7393 24.9525 13.4599 25.1842 13.1032 25.3071C12.929 25.3668 12.75 25.3871 12.5667 25.3556C12.3167 25.3141 12.1489 25.1702 12.0478 24.9427C11.9537 24.7327 11.9299 24.508 11.9291 24.2819C11.9263 23.4464 11.9277 19.0241 11.9277 18.9813H13.0702C13.0723 19.0199 13.0765 22.1944 13.0772 23.7427C13.0772 23.8269 13.0779 23.9133 13.0947 23.9955C13.1369 24.2033 13.2963 24.2925 13.4964 24.2194C13.7267 24.1352 13.9022 23.9765 14.0497 23.7862C14.0715 23.7588 14.0715 23.7097 14.0715 23.6703V18.9742L15.2174 18.9714C15.2174 18.9715 15.2174 21.1882 15.2174 22.24ZM19.5744 24.6688C19.4213 25.1295 19.0842 25.364 18.5998 25.3591C18.2058 25.3556 17.8863 25.199 17.623 24.9132C17.5935 24.8816 17.5121 24.7952 17.5121 24.7952V25.2741H16.3647V16.7392H17.5121C17.5121 17.6478 17.5121 19.5486 17.5121 19.5486C17.5121 19.5486 17.5767 19.4194 17.6357 19.3527C17.8133 19.154 18.0296 19.0002 18.2964 18.9328C18.7367 18.8226 19.2443 18.9588 19.4859 19.4735C19.6284 19.7775 19.6685 20.1019 19.6685 20.4319C19.6706 21.6249 19.6706 22.8179 19.6692 24.0109C19.6685 24.2342 19.6453 24.4547 19.5744 24.6688ZM23.8119 24.4288C23.6132 25.0109 23.2025 25.3339 22.6 25.4223C22.2265 25.4771 21.8564 25.4694 21.506 25.3107C21.0264 25.0944 20.7547 24.7033 20.6381 24.2055C20.5841 23.9738 20.5574 23.7308 20.5546 23.4928C20.5455 22.5582 20.5497 21.6229 20.5518 20.6883C20.5525 20.1996 20.669 19.7488 21.004 19.3745C21.386 18.9469 21.8747 18.7875 22.4329 18.8233C22.6007 18.8339 22.772 18.8613 22.9314 18.9139C23.4742 19.0923 23.7642 19.4988 23.878 20.0381C23.9215 20.2459 23.9376 20.4615 23.9411 20.6743C23.9503 21.1728 23.9376 22.2717 23.9376 22.2717H21.7406V23.8467C21.7406 24.1296 21.9695 24.3585 22.2524 24.3585C22.5347 24.3585 22.7636 24.1296 22.7636 23.8467V23.0371H23.944C23.944 23.037 23.9615 23.9927 23.8119 24.4288ZM22.7636 20.411C22.7636 20.1287 22.5347 19.8991 22.2524 19.8991C21.9695 19.8991 21.7406 20.1287 21.7406 20.411V21.295H22.7636V20.411ZM18.4052 20.1294C18.3463 19.9826 18.2199 19.9096 18.0612 19.8942C17.8751 19.8759 17.7263 19.951 17.5914 20.0704C17.5374 20.1174 17.5128 20.1877 17.5128 20.1877L17.5156 23.9773V24.0707C17.5156 24.0707 17.5479 24.1142 17.5528 24.1198C17.6624 24.2385 17.7901 24.3326 17.9538 24.3663C18.2234 24.4217 18.4137 24.3094 18.4663 24.0594C18.4797 23.9969 18.4874 23.9323 18.4874 23.8684C18.4888 22.74 18.4909 21.6124 18.4853 20.4847C18.4846 20.3652 18.4495 20.241 18.4052 20.1294Z" fill="white"/>
<path d="M21.3382 6.66968L21.3379 13.0063H20.1637L20.1651 12.3256C20.0353 12.4534 19.9245 12.5729 19.8027 12.6802C19.5869 12.8703 19.3424 13.0121 19.0564 13.068C18.6173 13.1539 18.2433 13.0151 18.1033 12.5604C18.0567 12.4089 18.0285 12.2457 18.0273 12.0875V6.66968H19.1927V11.5021C19.1927 11.5661 19.1978 11.6309 19.209 11.6936C19.2444 11.8928 19.3916 11.9865 19.5834 11.92C19.8171 11.8391 19.9955 11.6773 20.1468 11.4866C20.1683 11.4593 20.1644 11.4085 20.1644 11.3685V6.66968H21.3382Z" fill="white"/>
<path d="M11.6265 7.77069C11.3716 6.6963 10.8376 4.42822 10.8376 4.42822H9.50146C9.50146 4.42822 10.528 7.83283 10.9871 9.3512C11.0036 9.40611 11.0112 9.46572 11.0112 9.52323L11.0107 13.0049H12.2428L12.2423 9.52323C12.2423 9.46572 12.2499 9.40611 12.2664 9.3512C12.7255 7.83283 13.752 4.42822 13.752 4.42822H12.4159C12.4159 4.42822 11.8818 6.6963 11.627 7.77069H11.6265Z" fill="white"/>
<path d="M15.36 6.51074C14.4314 6.51074 13.6787 7.26347 13.6787 8.19201V11.4823C13.6787 12.4109 14.4314 13.1636 15.36 13.1636C16.2885 13.1636 17.0412 12.4109 17.0412 11.4823V8.19201C17.0413 7.26347 16.2885 6.51074 15.36 6.51074ZM15.8452 11.5487C15.8452 11.8163 15.6275 12.0339 15.36 12.0339C15.0926 12.0339 14.8749 11.8163 14.8749 11.5487V8.12552C14.8749 7.85799 15.0926 7.64039 15.36 7.64039C15.6275 7.64039 15.8452 7.85806 15.8452 8.12552V11.5487Z" fill="white"/>
</svg>
